<?xml version="1.0" standalone="no"?>
<!DOCTYPE svg PUBLIC "-//W3C//DTD SVG 1.1//EN" "http://www.w3.org/Graphics/SVG/1.1/DTD/svg11.dtd" >
<svg xmlns="http://www.w3.org/2000/svg">
<metadata></metadata>
<defs>
<font id="covesbold" horiz-adv-x="1014" >
<font-face units-per-em="2048" ascent="1638" descent="-410" />
<missing-glyph horiz-adv-x="508" />
<glyph unicode="&#xd;" horiz-adv-x="508" />
<glyph horiz-adv-x="0" />
<glyph horiz-adv-x="0" />
<glyph unicode=" "  horiz-adv-x="508" />
<glyph unicode="&#x09;" horiz-adv-x="508" />
<glyph unicode="&#xa0;" horiz-adv-x="508" />
<glyph unicode="!" horiz-adv-x="554" d="M187 90q0 -37 26 -64q27 -26 64 -26t64 26q26 27 26 64q0 38 -26 65q-27 26 -64 26t-64 -27q-26 -26 -26 -64zM201 313q0 -13 14 -13h125q13 0 13 13v851q0 13 -13 13h-125q-14 0 -14 -13v-851z" />
<glyph unicode="&#x22;" horiz-adv-x="249" d="M-9 1243v226q0 13 14 13h52q14 0 14 -13v-226q0 -14 -14 -14h-52q-14 0 -14 14zM162 1243v226q0 13 13 13h53q13 0 13 -13v-226q0 -14 -13 -14h-53q-13 0 -13 14z" />
<glyph unicode="#" horiz-adv-x="1188" d="M117 444q-1 -14 13 -14h114l-25 -309l-2 -32q-1 -14 13 -14h148q12 0 13 12l27 343h290l-24 -309l-3 -32q-1 -14 13 -14h148q12 0 13 12l27 343h129q12 0 13 12l12 148q1 14 -13 14h-127l20 248h128q12 0 13 12l12 148q1 14 -13 14h-127l25 318q2 14 -13 14h-148 q-12 0 -13 -12l-25 -320h-290l25 318q2 14 -13 14h-148q-12 0 -13 -12l-25 -320h-116q-12 0 -13 -12l-11 -148q-1 -14 13 -14h113l-19 -248h-116q-12 0 -13 -12zM432 604l20 248h289l-19 -248h-290z" />
<glyph unicode="$" horiz-adv-x="841" d="M106 339q13 -11 28 -22q21 -16 46 -31q50 -28 104 -43q37 -10 69 -13l4 -1v-76q0 -13 13 -13h109q13 0 13 13v80l18 3q52 11 91 32q52 27 86 71q37 47 49 108q1 6 2 15l2 16q1 4 1 7v2v3v10v3l1 7l-1 7l-1 15q0 6 -1 15l-3 16q-13 62 -56 112q-33 38 -85 71 q-36 22 -87 46l-16 7v241q31 -8 59 -22q9 -5 21 -13q8 -5 17 -12t17 1l91 89q10 10 0 19q-8 8 -12 11q-12 10 -26 19q-17 12 -36 22q-51 27 -106 39q-11 3 -25 5v84q0 13 -13 13h-109q-13 0 -13 -13v-84q-39 -6 -71 -19q-52 -20 -89 -57q-41 -41 -57 -101l-4 -14l-2 -14 q-3 -17 -3 -28l-1 -14v-1q0 2 0 1v-2l1 -3v-1v-1v-3v-5l1 -10q1 -8 2 -18l2 -9q1 -5 2 -9l4 -15q2 -6 6 -15l7 -15q5 -11 16 -27l9 -13q5 -7 10 -11q33 -38 86 -69q32 -19 81 -41v-286l-6 1l-11 3l-10 2q-35 10 -66 28q-9 5 -20 13q-8 5 -17 13q-9 7 -17 -1l-104 -99 q-10 -9 0 -19zM288 950v1l1 6v6l1 6l1 6l1 5q5 20 17 32q13 13 34 22q6 2 14 5v-177l-1 1q-31 18 -47 36l-4 5l-4 4l-2 4l-3 5l-2 4l-2 4l-1 5v1l-1 2v1l-1 1v10zM492 402v217q45 -25 64 -49q16 -19 20 -41l1 -5q1 -3 1 -6v-6v-2v-2l-1 -10v-3v-3v-3l-1 -5l-1 -5 q-10 -43 -50 -65q-14 -7 -33 -12z" />
<glyph unicode="%" horiz-adv-x="1031" d="M62 1124q0 -117 76 -204t189 -104q13 -2 14 11l19 141q2 13 -10 15q-50 8 -84 47q-34 38 -35 90q-2 57 38 100t97 46q10 1 21 0q12 -1 14 11l18 141q2 14 -11 15q-17 2 -35 2q-128 0 -220 -91q-91 -92 -91 -220zM306 15q-2 -15 13 -15h149q11 0 13 11l185 1409 q2 15 -13 15h-148q-12 0 -13 -11zM563 17q-2 -14 11 -15q17 -2 35 -2q128 0 220 91q91 92 91 220q0 117 -76 204t-189 104q-13 2 -15 -11l-18 -141q-2 -13 10 -15q50 -8 84 -47q34 -38 35 -90q2 -57 -38 -100t-97 -46q-11 -1 -21 0q-12 1 -14 -11z" />
<glyph unicode="&#x26;" horiz-adv-x="1204" d="M115 363q23 -146 132 -247q110 -102 256 -114q165 -14 295 85q23 17 43 37l25 -31q12 -15 25 -27q25 -22 54 -34q23 -9 48 -11q45 -4 90 16q16 7 32 16q5 4 11 8q4 3 8 7l16 11q11 8 3 18l-83 117q-7 10 -18 3q-7 -5 -13 -9q-8 -5 -14 -9q-16 -10 -17 -10q-4 2 -10 9 q-38 48 -59 74q30 76 30 158q0 72 -21 146q-8 27 -18 53q-8 18 -16 34q-6 13 -18 6l-125 -70q-10 -6 -5 -17q4 -10 9 -21q5 -14 10 -29q12 -40 15 -79q-102 134 -196 266q76 20 140 54q85 44 134 127q50 83 50 182q0 159 -120 264q-120 107 -281 86q-110 -15 -192 -91 t-105 -183q-30 -143 48 -266l4 -6q2 -4 5 -7q3 -5 6 -9l18 -26q11 -17 23 -35q-24 -14 -48 -33q-98 -75 -143 -184q-46 -110 -28 -229zM279 430q0 61 29 117q28 55 81 95q21 16 43 27q149 -211 304 -411q-78 -89 -196 -89q-108 0 -184 77q-77 76 -77 184zM391 1082 q0 76 54 130t130 54t130 -54t54 -130q0 -51 -26 -94q-25 -44 -67 -66q-59 -30 -160 -53l-7 -2q-17 25 -33 49q-13 19 -25 36q-5 7 -9 14q-3 4 -7 10l-5 8q-29 45 -29 98z" />
<glyph unicode="'" horiz-adv-x="54" d="M-3 1243q0 -14 14 -14h52q14 0 14 14v226q0 13 -14 13h-52q-14 0 -14 -13v-226z" />
<glyph unicode="(" horiz-adv-x="587" d="M165 717q0 -372 107 -643l11 -27q4 -12 17 -7l137 54q13 5 8 17l-11 27q-95 240 -95 579q0 340 95 579l11 28q5 12 -8 17l-137 54q-13 5 -17 -7l-11 -28q-107 -270 -107 -643z" />
<glyph unicode=")" horiz-adv-x="596" d="M154 111q-5 -12 8 -17l137 -54q13 -5 17 7l11 27q107 271 107 643q0 373 -107 643l-11 28q-4 12 -17 7l-137 -54q-13 -5 -8 -17l11 -28q95 -239 95 -579q0 -339 -95 -579z" />
<glyph unicode="*" horiz-adv-x="444" d="M50 1173l30 -42q7 -10 18 -3l77 56v-92q0 -13 13 -13h50q13 0 13 13v92l77 -56q11 -7 18 3l30 42q8 10 -3 18l-94 68l94 67q11 8 3 19l-30 41q-7 10 -18 3l-77 -55v91q0 13 -13 13h-50q-13 0 -13 -13v-91l-77 55q-11 7 -18 -3l-30 -41q-8 -11 3 -19l94 -67l-94 -68 q-11 -8 -3 -18z" />
<glyph unicode="+" horiz-adv-x="844" d="M70 646q0 -13 13 -13h251v-251q0 -13 13 -13h143q13 0 13 13v251h251q13 0 13 13v143q0 13 -13 13h-251v251q0 13 -13 13h-143q-13 0 -13 -13v-251h-251q-13 0 -13 -13v-143z" />
<glyph unicode="," horiz-adv-x="364" d="M92 54q0 -44 31 -75q30 -30 74 -30h9q21 0 35 14q15 15 15 35v166q0 12 -9 21q-8 8 -20 8h-106q-12 0 -21 -8q-8 -9 -8 -21v-110z" />
<glyph unicode="-" horiz-adv-x="707" d="M89 646v143q0 13 13 13h481q13 0 13 -13v-143q0 -13 -13 -13h-481q-13 0 -13 13z" />
<glyph unicode="." horiz-adv-x="347" d="M76 97q0 40 28 68q29 28 69 28t68 -28t28 -68t-28 -69q-28 -28 -68 -28t-69 28q-28 29 -28 69z" />
<glyph unicode="/" horiz-adv-x="603" d="M131 15q-2 -15 13 -15h149q11 0 12 11l186 1409q2 15 -13 15h-148q-12 0 -13 -11z" />
<glyph unicode="0" horiz-adv-x="1703" d="M158 717q0 146 56 279q55 129 154 228q100 100 228 154q134 57 279 57q146 0 279 -57q129 -54 228 -154q100 -99 154 -228q57 -133 57 -279q0 -145 -57 -279q-54 -128 -154 -228q-99 -99 -228 -154q-133 -56 -279 -56q-145 0 -279 56q-128 55 -228 154q-99 100 -154 228 q-56 134 -56 279zM328 717q0 -226 160 -387q76 -76 174 -117q102 -43 213 -43q227 0 387 160q76 76 118 174q43 102 43 213q0 227 -161 387q-75 76 -174 118q-101 43 -213 43q-226 0 -387 -161q-76 -75 -117 -174q-43 -101 -43 -213z" />
<glyph unicode="1" horiz-adv-x="664" d="M119 1209l104 -104q9 -9 18 0l57 57v-1149q0 -13 13 -13h147q13 0 13 13v1406q0 13 -13 13h-130q-5 0 -9 -4l-200 -200q-10 -10 0 -19z" />
<glyph unicode="2" horiz-adv-x="1053" d="M77 7q3 -7 11 -7h848q12 0 12 13v147q0 13 -12 13h-548l458 683l1 2q54 90 54 196q0 157 -111 269q-112 112 -270 112q-122 0 -222 -72t-139 -187q-4 -13 9 -17l141 -42q12 -3 16 8q22 61 76 99t119 38q86 0 147 -61t61 -147q0 -57 -28 -105l-623 -929q-4 -6 0 -13z" />
<glyph unicode="3" horiz-adv-x="996" d="M85 192l18 -24q63 -82 155 -126t195 -42q172 4 294 127q123 124 125 295q2 107 -46 201q-48 93 -134 155q127 111 127 281q0 163 -119 275q-120 112 -284 100q-148 -11 -254 -126l-15 -17q-9 -9 1 -18l109 -100q9 -9 18 1l17 18q53 59 127 68q93 11 161 -52 q69 -63 66 -155q-3 -82 -64 -139t-144 -57h-88q-13 0 -13 -13v-148q0 -12 13 -12h87q102 0 180 -73q78 -72 82 -173q4 -112 -77 -191q-80 -79 -193 -73q-116 7 -192 105l-14 18q-8 11 -18 3l-117 -90q-10 -8 -3 -18z" />
<glyph unicode="4" horiz-adv-x="1087" d="M88 432q4 -7 12 -7h572v-413q0 -12 12 -12h142q12 0 12 12v413h146q13 0 13 13v141q0 12 -13 12h-146v832q0 9 -8 11q-9 3 -14 -4l-726 -985q-5 -6 -2 -13zM404 591l268 364v-364h-268z" />
<glyph unicode="5" horiz-adv-x="1082" d="M143 191q-8 11 4 18l118 79q10 7 18 -3q49 -68 127 -98q79 -30 163 -12q90 19 151 90q62 70 70 162q10 125 -75 216q-84 91 -207 91h-292q-13 0 -13 13v675q0 13 13 13h628q13 0 13 -13v-142q0 -13 -13 -13h-473v-365h137q190 0 323 -137t128 -328q-6 -171 -126 -297 t-290 -139q-120 -9 -228 42q-107 51 -176 148z" />
<glyph unicode="6" horiz-adv-x="1107" d="M153 427q0 -176 125 -302q126 -125 302 -125q175 0 300 124q125 123 127 298l1 2v3q0 177 -126 302q-125 126 -302 126l-27 -1l360 561q4 6 0 13t-11 7h-175q-8 0 -11 -6l-480 -748q-17 -23 -30 -48l-2 -4q-51 -94 -51 -202zM326 427q0 63 30 119l1 1l1 2l17 26 q35 50 90 78q54 28 115 28q105 0 179 -75q75 -74 75 -179v-3q-2 -104 -76 -177q-74 -74 -178 -74q-105 0 -179 75q-75 74 -75 179z" />
<glyph unicode="7" horiz-adv-x="1039" d="M80 1278q0 -13 13 -13h707l-669 -1254q-2 -3 0 -7t7 -4h175q8 0 11 7l754 1411q4 7 0 13t-11 6h-974q-13 0 -13 -13v-146z" />
<glyph unicode="8" horiz-adv-x="1135" d="M199 422q0 -174 124 -298t298 -124q175 0 299 124t124 298q0 106 -50 198q-48 90 -131 148q63 53 99 127q37 77 37 163q0 156 -111 266q-111 111 -267 111t-267 -111q-111 -110 -111 -266q0 -86 37 -163q36 -74 99 -127q-83 -59 -131 -148q-49 -93 -49 -198zM367 422 q0 105 75 180q74 74 179 74t180 -74q74 -75 74 -180t-74 -179q-75 -75 -180 -75t-179 75q-75 74 -75 179zM412 1058q0 86 61 148q61 61 148 61t148 -61q61 -62 61 -148q0 -87 -61 -148q-61 -62 -148 -62t-148 62q-61 61 -61 148z" />
<glyph unicode="9" horiz-adv-x="1067" d="M126 1008q0 -177 125 -302q126 -126 302 -126l28 1l-360 -561q-4 -6 -1 -13q4 -7 12 -7h175q7 0 11 6l479 748q17 23 31 48l2 4q51 95 51 202q0 177 -126 302q-125 125 -302 125q-175 0 -300 -124q-125 -123 -127 -298v-2v-3zM300 1008v3q1 104 75 177q75 74 178 74 q105 0 180 -75q74 -74 74 -179q0 -63 -29 -119l-1 -1l-1 -2l-17 -26q-36 -50 -90 -78q-55 -28 -116 -28q-104 0 -179 75q-74 74 -74 179z" />
<glyph unicode=":" horiz-adv-x="451" d="M147 402q0 40 29 68q28 29 68 29t69 -29q28 -28 28 -68t-28 -69q-29 -28 -69 -28t-68 28q-29 29 -29 69zM147 947q0 40 29 68q28 29 68 29t69 -29q28 -28 28 -68t-28 -69q-29 -28 -69 -28t-68 28q-29 29 -29 69z" />
<glyph unicode=";" horiz-adv-x="457" d="M114 945q0 40 28 69q29 28 69 28t68 -28q28 -29 28 -69t-28 -68t-68 -28t-69 28q-28 28 -28 68zM129 330q0 -43 30 -74q31 -31 75 -31h9q20 0 35 15q15 14 15 35v166q0 12 -9 21q-8 8 -20 8h-106q-12 0 -21 -8q-8 -9 -8 -21v-111z" />
<glyph unicode="&#x3c;" horiz-adv-x="659" d="M59 708q-9 9 0 19l363 363q9 9 19 0l101 -101q9 -10 0 -19l-253 -253l253 -252q9 -10 0 -19l-101 -101q-10 -9 -19 0z" />
<glyph unicode="=" horiz-adv-x="945" d="M116 513v143q0 13 13 13h671q13 0 13 -13v-143q0 -13 -13 -13h-671q-13 0 -13 13zM116 779v142q0 13 13 13h671q13 0 13 -13v-142q0 -13 -13 -13h-671q-13 0 -13 13z" />
<glyph unicode="&#x3e;" horiz-adv-x="654" d="M93 446q-9 9 0 19l253 252l-253 253q-9 9 0 19l101 101q9 9 19 0l363 -363q9 -10 0 -19l-363 -363q-10 -9 -19 0z" />
<glyph unicode="?" horiz-adv-x="743" d="M35 1097q-10 -10 1 -19l86 -71q8 -7 17 1l8 8q10 9 21 17q23 16 47 27q49 24 102 26l7 1h6h15l13 -1l7 -1l6 -1q28 -3 49 -12q45 -17 66 -53q11 -18 16 -41q6 -22 6 -50v-2v-4v-9l-1 -4q0 -3 -1 -6q0 -8 -4 -22q-6 -21 -18 -40q-24 -35 -77 -68q-34 -21 -111 -59l-34 -16 q-7 -4 -7 -12v-38l-1 -344q0 -13 13 -13h125q12 0 12 13l-1 299q50 25 83 47q36 23 63 47q33 30 56 64q24 38 36 82q7 24 9 43q0 5 1 12v12l1 8v11q-1 44 -11 82q-10 45 -33 82q-24 40 -61 69q-35 27 -78 42q-36 14 -81 19l-10 1l-9 1l-21 1h-19h-10h-10q-81 -5 -155 -41 q-35 -18 -67 -42q-17 -12 -31 -25l-9 -9q-7 -6 -12 -12zM241 88q0 -36 26 -62t62 -26t62 26t26 62t-26 62t-62 26t-62 -26t-26 -62z" />
<glyph unicode="@" horiz-adv-x="1512" d="M125 679q8 -122 61 -233q53 -110 143 -192q94 -85 214 -127q101 -36 207 -36q96 0 190 30q12 4 8 17l-46 135q-4 11 -16 8q-144 -45 -287 5q-107 37 -183 119q-77 82 -108 193q-26 93 -11 188q19 115 86 205t169 139q171 82 349 19q178 -62 260 -232q82 -169 22 -347 l-93 55q21 76 7 154q-20 112 -103 192q-82 80 -195 96q-84 11 -162 -16q-76 -25 -133 -81t-85 -130q-28 -77 -20 -161q13 -122 101 -210t209 -102q87 -9 166 21q77 29 133 89l232 -137q12 -7 18 5l36 63q28 49 47 102q41 119 34 242q-6 124 -61 237q-54 113 -146 195 q-92 83 -211 124q-118 42 -242 35q-123 -7 -236 -61q-113 -55 -196 -147q-82 -92 -124 -210q-42 -120 -34 -246zM566 717q0 76 54 130t130 54t130 -54t54 -130q0 -75 -54 -129t-130 -54t-130 54t-54 129z" />
<glyph unicode="A" horiz-adv-x="1380" d="M19 18q-1 -3 -1 -5q0 -3 2 -7q4 -6 11 -6h160q9 0 12 8l229 552h507l229 -552q3 -8 12 -8h160q7 0 11 6q2 3 2 7q0 3 -1 5l-585 1409q-3 8 -12 8h-139q-8 0 -12 -8zM505 734l181 435l180 -435h-361z" />
<glyph unicode="B" horiz-adv-x="1306" d="M174 13q0 -13 13 -13h552q174 0 300 119q127 119 132 291v12q0 108 -51 202q-53 97 -146 156q113 112 113 266v8q-3 157 -115 267q-112 111 -269 111h-516q-13 0 -13 -13v-1406zM356 182v481h392q100 0 170 -70q71 -71 71 -170q0 -100 -71 -170q-70 -71 -170 -71h-392z M356 846v404h347q83 0 142 -60q60 -59 60 -142q0 -84 -60 -143q-59 -59 -142 -59h-347z" />
<glyph unicode="C" horiz-adv-x="1226" d="M82 757q-1 -23 -1 -45q0 -280 197 -488q100 -106 232 -164q137 -60 287 -60q214 0 391 116q7 4 7 10q0 4 -3 8l-88 129q-7 11 -18 4q-131 -85 -289 -85q-222 0 -379 159q-155 156 -155 374v8q3 206 145 358q143 152 347 168q23 2 45 2q154 0 285 -85q11 -7 18 4l88 129 q3 4 3 8q0 6 -7 10q-177 115 -386 116q-30 0 -61 -3q-266 -21 -454 -214q-189 -193 -204 -459z" />
<glyph unicode="D" horiz-adv-x="1485" d="M174 13q0 -13 13 -13h442q296 0 510 205t220 499v17q0 290 -206 499q-211 215 -512 215h-454q-13 0 -13 -13v-1409zM357 183v1069h284q222 0 378 -156q157 -157 157 -378t-157 -378q-156 -157 -378 -157h-284z" />
<glyph unicode="E" horiz-adv-x="1197" d="M174 13q0 -13 13 -13h930q13 0 13 13v156q0 13 -13 13h-761v443h551q13 0 13 13v156q0 13 -13 13h-551v443h761q13 0 13 13v156q0 13 -13 13h-930q-13 0 -13 -13v-1406z" />
<glyph unicode="F" horiz-adv-x="1075" d="M174 13q0 -13 13 -13h157q13 0 13 13v614h542q13 0 13 13v157q0 13 -13 13h-542v441h699q13 0 13 13v157q0 13 -13 13h-869q-13 0 -13 -13v-1408z" />
<glyph unicode="G" horiz-adv-x="1462" d="M79 753q-1 -19 -1 -38q0 -136 50 -262q55 -138 160 -244q106 -105 244 -160q126 -49 261 -49q19 0 39 1q277 15 480 221l14 15q4 4 4 9v481q0 13 -13 13h-403q-13 0 -13 -13v-156q0 -13 13 -13h233v-241q-150 -135 -354 -135q-231 0 -390 170q-143 154 -143 358 q0 23 2 47q15 201 163 343t350 148h22q215 0 370 -152q9 -9 18 -1l112 109q10 10 1 19q-206 205 -496 208h-9q-280 0 -488 -195q-211 -198 -226 -483z" />
<glyph unicode="H" horiz-adv-x="1391" d="M174 15q0 -13 13 -13h157q13 0 13 13v612h669v-614q0 -13 13 -13h157q13 0 13 13v1406q0 13 -13 13h-157q-13 0 -13 -13v-609h-669v611q0 13 -13 13h-157q-13 0 -13 -13v-1406z" />
<glyph unicode="I" horiz-adv-x="539" d="M174 13q0 -13 13 -13h157q13 0 13 13v1406q0 13 -13 13h-157q-13 0 -13 -13v-1406z" />
<glyph unicode="J" horiz-adv-x="1010" d="M2 216q62 -100 165 -158q104 -58 222 -58q187 0 321 133q133 133 133 321v968q0 13 -13 13h-157q-13 0 -13 -13v-968q0 -112 -80 -192q-79 -79 -191 -79q-70 0 -131 33q-61 34 -98 92q-7 11 -18 5l-136 -79q-7 -4 -7 -10q0 -4 3 -8z" />
<glyph unicode="K" horiz-adv-x="1216" d="M174 13q0 -13 13 -13h157q13 0 13 13v544l590 -553q3 -4 9 -4h229q9 0 12 8q1 3 1 6q0 5 -4 8l-745 699l691 689q6 6 2 14q-3 8 -12 8h-222q-5 0 -9 -4l-542 -540v532q0 13 -13 13h-157q-13 0 -13 -13v-1407z" />
<glyph unicode="L" horiz-adv-x="1044" d="M174 13q0 -13 13 -13h796q13 0 13 13v157q0 13 -13 13h-626v1237q0 13 -13 13h-157q-13 0 -13 -13v-1407z" />
<glyph unicode="M" horiz-adv-x="1528" d="M174 13q0 -13 13 -13h148q13 0 13 13v1060l402 -449q9 -10 19 0l403 450v-1061q0 -13 13 -13h148q13 0 13 13v1406q0 13 -13 13h-59q-15 0 -26 -12l-489 -546l-488 546q-11 12 -26 12h-58q-13 0 -13 -13v-1406z" />
<glyph unicode="N" horiz-adv-x="1387" d="M174 13q0 -13 13 -13h148q13 0 13 13v1011l763 -1019q4 -5 10 -5h71q13 0 13 13v1407q0 13 -13 13h-148q-13 0 -13 -13v-1018l-768 1025q-4 6 -10 6h-66q-13 0 -13 -13v-1407z" />
<glyph unicode="O" horiz-adv-x="1623" d="M71 716q0 -296 210 -506t506 -210t506 210t210 506t-210 506t-506 210t-506 -210t-210 -506zM254 716q0 220 156 377q156 156 377 156q220 0 377 -156q156 -157 156 -377q0 -221 -156 -377q-157 -156 -377 -156q-221 0 -377 156t-156 377z" />
<glyph unicode="P" horiz-adv-x="1215" d="M174 13q0 -13 13 -13h157q13 0 13 13v603h351q167 0 289 115q123 116 128 282v14q0 164 -116 283q-120 123 -293 123h-529q-13 0 -13 -12v-1408zM357 800v450h359q94 0 160 -66t66 -159t-66 -159t-160 -66h-359z" />
<glyph unicode="Q" horiz-adv-x="1624" d="M71 718q0 -297 210 -507t507 -210q69 0 137 13l35 -161q2 -10 13 -10h148q17 0 13 16l-45 209q187 87 300 260q115 177 115 390q0 296 -210 506q-210 211 -506 211q-297 0 -507 -211q-210 -210 -210 -506zM254 718q0 221 156 377q157 157 378 157t377 -157 q157 -156 157 -377q0 -147 -76 -273q-73 -123 -197 -193l-16 74q-2 11 -13 11h-149q-16 0 -12 -16l27 -128q-49 -9 -98 -9q-221 0 -378 157q-156 156 -156 377z" />
<glyph unicode="R" horiz-adv-x="1221" d="M174 16q0 -13 13 -13h156q13 0 13 13v605h247l-1 -1l336 -613q3 -7 11 -7h178q8 0 11 6q2 4 2 8q0 3 -1 5l-337 614q134 32 223 136q90 107 95 246v14q0 163 -115 281q-120 123 -292 123h-526q-13 0 -13 -13v-1404zM356 803v448h357q93 0 159 -65q66 -66 66 -159 q0 -92 -66 -158t-159 -66h-357z" />
<glyph unicode="S" horiz-adv-x="1097" d="M86 169q9 -9 20 -18q15 -12 31 -24q43 -32 92 -57q140 -70 298 -70q215 0 340 107q125 106 125 290q0 169 -139 287q-52 44 -127 84q-29 15 -64 32l-30 13q-10 5 -29 13l-46 22l-3 2q-130 56 -181 100q-61 52 -61 122q0 178 239 178q93 0 176 -39q29 -13 56 -31 q10 -7 19 -14q7 -6 13 -12q9 -7 18 1l57 54l56 53q11 10 0 19q-8 8 -18 17q-14 11 -28 21q-39 29 -83 51q-125 62 -266 62q-195 0 -308 -97q-113 -96 -113 -263q0 -154 125 -261q47 -40 114 -75q26 -14 58 -29l27 -12l25 -11l47 -23l3 -1q148 -65 209 -118q72 -62 72 -145 q0 -215 -283 -215q-110 0 -207 46q-35 17 -65 38q-12 8 -22 16q-8 7 -15 13q-9 8 -18 0l-114 -107q-5 -5 -5 -10t5 -9z" />
<glyph unicode="T" horiz-adv-x="1059" d="M60 1263q0 -13 13 -13h376v-1237q0 -13 13 -13h156q13 0 13 13v1237h375q13 0 13 13v156q0 13 -13 13h-933q-13 0 -13 -13v-156z" />
<glyph unicode="U" horiz-adv-x="1347" d="M151 525q0 -217 154 -372q150 -153 358 -153h11q210 4 358 154t148 360v905q0 13 -13 13h-156q-13 0 -13 -13v-905q0 -140 -102 -239q-97 -93 -229 -93h-14q-134 5 -228 105q-92 100 -92 236v896q0 13 -13 13h-156q-13 0 -13 -13v-894z" />
<glyph unicode="V" horiz-adv-x="1150" d="M70 1406l479 -1393q4 -13 18 -13h127q14 0 18 13l479 1393q1 3 1 6q0 6 -4 12q-6 8 -16 8h-142q-14 0 -19 -13l-381 -1109l-381 1109q-4 13 -18 13h-142q-10 0 -16 -8q-4 -5 -4 -12q0 -3 1 -6z" />
<glyph unicode="W" horiz-adv-x="1507" d="M152 1417l96 -1405q1 -12 13 -12h131q7 0 11 6l368 571l368 -571q4 -6 11 -6h129q12 0 13 12l96 1405q1 14 -13 14h-146q-12 0 -13 -12l-75 -1101l-330 513q-4 6 -11 6h-58q-7 0 -11 -6l-332 -514l-75 1102q-1 12 -13 12h-146q-14 0 -13 -14z" />
<glyph unicode="X" horiz-adv-x="1179" d="M79 1411l438 -697l-436 -694q-2 -4 -2 -7t2 -6q4 -7 11 -7h181q7 0 11 6l338 540l339 -540q4 -6 11 -6h181q7 0 11 7q2 3 2 6t-2 7l-436 694l438 697q2 4 2 7t-2 6q-4 7 -11 7h-180q-8 0 -11 -6l-342 -543l-341 543q-3 6 -11 6h-180q-8 0 -11 -7q-2 -3 -2 -6t2 -7z" />
<glyph unicode="Y" horiz-adv-x="1131" d="M64 1411l424 -675v-723q0 -13 13 -13h148q13 0 13 13v721l425 677q2 3 2 6.5t-2 6.5q-4 7 -11 7h-175q-7 0 -11 -6l-315 -501l-315 501q-3 6 -11 6h-174q-8 0 -11 -7q-2 -3 -2 -6.5t2 -6.5z" />
<glyph unicode="Z" horiz-adv-x="1111" d="M55 13q0 -13 13 -13h963q13 0 13 13v157q0 13 -13 13h-742l730 1083q2 3 2 7v146q0 13 -13 13h-873q-13 0 -13 -13v-156q0 -13 13 -13h652l-730 -1084q-2 -3 -2 -7v-146z" />
<glyph unicode="[" horiz-adv-x="758" d="M293 89q0 -13 13 -13h242q13 0 13 13v148q0 13 -13 13h-80v934h80q13 0 13 13v149q0 13 -13 13h-242q-13 0 -13 -13v-1257z" />
<glyph unicode="\" horiz-adv-x="569" d="M0 1420q-2 15 13 15h149q11 0 12 -11l186 -1409q2 -15 -13 -15h-148q-12 0 -13 11z" />
<glyph unicode="]" horiz-adv-x="758" d="M293 89q0 -13 13 -13h242q13 0 13 13v1257q0 13 -13 13h-242q-13 0 -13 -13v-149q0 -13 13 -13h81v-934h-81q-13 0 -13 -13v-148z" />
<glyph unicode="^" d="M257 1049q-9 9 0 19l363 362q9 10 18 0l363 -362q9 -10 0 -19l-101 -101q-9 -9 -18 0l-253 253l-253 -253q-9 -9 -18 0z" />
<glyph unicode="_" horiz-adv-x="1024" d="M200 -54q0 13 13 13h670q13 0 13 -13v-143q0 -13 -13 -13h-670q-13 0 -13 13v143z" />
<glyph unicode="`" horiz-adv-x="1024" d="M230 1449q-4 12 9 17l48 18q13 5 18 -7l81 -211q5 -13 -8 -18l-49 -19q-13 -5 -18 8z" />
<glyph unicode="a" horiz-adv-x="922" d="M88 282q0 -132 81 -207q81 -74 225 -74q140 0 242 85q4 -38 9 -75q2 -11 13 -11h144q13 0 13 12l-9 72q-6 47 -10 92q-12 122 -12 209q0 17 1 52q1 17 1 33v28q0 94 -12 152q-20 101 -79 162q-85 87 -244 87q-112 0 -205 -44q-34 -16 -63 -36q-12 -8 -22 -17 q-8 -6 -15 -13q-10 -9 0 -19l106 -97q8 -8 17 0q10 8 23 16q18 11 38 19q55 23 121 23q88 0 123 -37q34 -35 41 -124q-46 3 -89 3q-243 0 -353 -98q-85 -75 -85 -193zM257 282q0 42 27 66q63 56 244 56q41 0 86 -3q-16 -136 -96 -194q-30 -21 -67 -31q-28 -7 -57 -7 q-85 0 -116 35q-21 24 -21 78z" />
<glyph unicode="b" horiz-adv-x="1171" d="M160 16q0 -13 13 -13h145q13 0 13 13v83q123 -99 280 -99q194 0 327 142q63 66 95 152q28 75 28 156q0 15 -1 29q-11 170 -135 291t-295 128h-21q-155 0 -278 -98v622q0 13 -13 13h-145q-13 0 -13 -13v-1406zM331 443v13q3 114 84 194q82 80 196 80q116 0 199 -82 q82 -83 82 -199t-82 -198q-83 -82 -199 -82q-114 0 -196 80q-81 80 -84 194z" />
<glyph unicode="c" horiz-adv-x="835" d="M55 470q-1 -12 -1 -24q0 -178 125 -308q133 -138 324 -138q131 0 241 70q7 4 7 10q0 4 -3 8l-80 118q-7 10 -18 4q-67 -42 -147 -42q-123 0 -207 92q-74 80 -74 186q0 15 2 31q10 96 78 167t163 83q20 3 40 3q77 0 145 -41q10 -7 17 3l80 118q3 5 3 9q0 6 -7 10 q-110 70 -237 70q-19 0 -39 -2q-167 -13 -286 -136t-126 -291z" />
<glyph unicode="d" horiz-adv-x="1089" d="M58 478q-1 -16 -1 -32q0 -175 123 -305q62 -66 145 -103q86 -38 181 -38q157 0 280 98v-83q0 -13 13 -13h145q13 0 13 13v1405q0 13 -13 13h-145q-13 0 -13 -13v-621q-123 98 -277 98h-21q-171 -7 -295 -128t-135 -291zM226 449q0 116 82 198t198 82q114 0 196 -80 q81 -80 84 -194v-13q-3 -114 -84 -194q-82 -80 -196 -80q-116 0 -198 82q-82 83 -82 199z" />
<glyph unicode="e" horiz-adv-x="1019" d="M46 449q0 -186 132 -317q132 -132 317 -132q117 0 219 57q103 57 164 156q7 12 -5 18l-123 72q-11 6 -18 -5q-38 -60 -102 -95q-63 -34 -135 -34q-82 0 -151 44q-68 44 -102 116l660 57q12 1 12 13v57q0 180 -126 310q-126 131 -305 132h-3q-181 0 -307 -129 q-127 -130 -127 -320zM218 496q15 103 88 168q73 66 174 66q96 0 165 -52q69 -51 91 -137z" />
<glyph unicode="f" horiz-adv-x="602" d="M71 718q0 -13 13 -13h129v-679q0 -13 13 -13h143q13 0 13 13v679h188q13 0 13 13v143q0 13 -13 13h-188v246q0 71 44 93q14 7 30 7q27 0 57 -19q11 -7 18 3l85 114q4 5 4 9q0 5 -7 10q-63 43 -132 50q-14 2 -28 2q-55 0 -103 -25q-64 -32 -101 -97q-36 -65 -36 -147v-246 h-129q-13 0 -13 -13v-143z" />
<glyph unicode="g" horiz-adv-x="1102" d="M59 479q-1 -17 -1 -34q0 -175 122 -304q63 -67 146 -104q87 -38 182 -38q161 0 286 103v-82q0 -95 -54 -172q-56 -78 -145 -105q-42 -13 -83 -13q-50 0 -99 19q-87 33 -137 112q-7 11 -18 4l-124 -71q-11 -7 -4 -18q61 -99 163 -157q103 -57 220 -57q186 0 318 132 t132 318v876q0 13 -13 13h-143q-13 0 -13 -13v-92q-124 103 -283 103h-18q-172 -6 -298 -127q-125 -122 -136 -293zM226 449q0 116 83 199q82 82 199 82q116 0 199 -82q82 -83 82 -199t-82 -199q-83 -82 -199 -82q-117 0 -199 82q-83 83 -83 199z" />
<glyph unicode="h" horiz-adv-x="1027" d="M160 16q0 -14 13 -14h145q13 0 13 14v457l2 51q1 5 1 15l1 5v3v3q1 7 4 18q5 24 16 47q14 29 35 52q27 28 60 45q37 20 79 23h6h5h6h2h2h7h7l4 -1h5q22 -3 44 -10q43 -15 76 -48q33 -32 50 -75q7 -21 11 -43q1 -10 2 -22v-10v-15v-58l-1 -29v-27v-102q-1 -126 -2 -211 v-71q0 -13 13 -13h143q13 0 13 13v71q-1 85 -1 211q-1 37 -1 102v27v29q0 33 -1 58v15v19q-2 20 -5 38q-6 40 -21 76q-30 77 -89 133t-136 82q-38 12 -77 16q-4 1 -10 1l-11 1h-5h-4l-7 1h-6l-5 -1h-9h-10l-9 -1q-73 -8 -137 -43q-23 -12 -47 -30v604q0 13 -13 13h-145 q-13 0 -13 -13v-1406z" />
<glyph unicode="i" horiz-adv-x="452" d="M153 1160q0 -40 29 -69q28 -28 68 -28t68 28q28 29 28 69t-28 68t-68 28t-68 -28q-29 -28 -29 -68zM166 13q0 -13 13 -13h142q13 0 13 13v872q0 13 -13 13h-142q-13 0 -13 -13v-872z" />
<glyph unicode="j" horiz-adv-x="486" d="M-68 -278q-3 -5 -3 -9q0 -5 6 -9q76 -52 158 -52q56 0 105 25q64 32 100 96q37 65 37 147v965q0 13 -13 13h-143q-13 0 -13 -13v-965q0 -71 -44 -93q-14 -7 -30 -7q-27 0 -57 19q-10 7 -17 -3zM154 1157q0 -39 28 -68q29 -28 69 -28q39 0 68 28q28 29 28 68q0 40 -28 69 q-29 28 -68 28q-40 0 -69 -28q-28 -29 -28 -69z" />
<glyph unicode="k" horiz-adv-x="933" d="M160 14q0 -13 13 -13h145q13 0 13 13v368l43 41l346 -417q3 -5 10 -5h189q8 0 11 8q2 3 2 6q0 4 -3 8l-431 519l352 336q7 6 3 15q-3 8 -12 8h-210q-6 0 -9 -4l-291 -277v802q0 13 -13 13h-145q-13 0 -13 -13v-1408z" />
<glyph unicode="l" horiz-adv-x="464" d="M160 13q0 -13 13 -13h146q13 0 13 13v1409q0 13 -13 13h-146q-13 0 -13 -13v-1409z" />
<glyph unicode="m" horiz-adv-x="1581" d="M140 13q0 -13 13 -13h145q13 0 13 13v507l1 12q0 5 1 14v5v3l1 3q1 7 3 18q5 23 16 45q14 28 35 50q55 59 136 63l10 1h3h1l8 -1h6h2h2q1 -1 5 -1l5 -1q22 -3 42 -11q42 -16 72 -49q31 -32 45 -74q7 -21 9 -42l1 -21v-29q0 -26 -1 -57v-28v-27q0 -68 -1 -100 q0 -124 -1 -207v-71q0 -13 13 -13h143q13 0 13 13v71q-1 83 -1 207q0 19 -1 47v25v26q0 65 -1 109l2 32v14l1 5v3l1 3q1 7 3 18q5 23 16 45q14 28 35 50q55 59 136 63h5l5 1h3h1l8 -1h6h2h2q1 -1 5 -1l5 -1q22 -3 42 -11q42 -16 72 -49q31 -32 45 -74q7 -21 9 -42l1 -21v-29 q-1 -26 -1 -57v-28v-27q-1 -68 -1 -100l-1 -207v-71q0 -13 13 -13h143q13 0 13 13v71q-1 83 -2 207v100v27v28q-1 31 -1 57v29q0 20 -2 39q-5 39 -18 76q-26 76 -82 134q-56 57 -132 86q-37 13 -76 19l-9 1q-6 0 -10 1h-6h-5q-6 1 -8 1h-8h-2h-4h-4l-19 -1q-73 -6 -137 -39 q-57 -30 -100 -78q-10 -11 -19 -23q-14 18 -29 33q-56 57 -132 86q-37 13 -76 19l-9 1q-6 0 -10 1h-5h-6q-6 1 -8 1h-8h-2h-4h-4l-19 -1q-73 -6 -137 -39q-21 -11 -45 -28v67q0 13 -13 13h-145q-13 0 -13 -13v-877z" />
<glyph unicode="n" d="M140 13q0 -13 13 -13h146q13 0 13 13v507v12q1 5 1 14l1 5v3v4q1 6 4 17q5 23 16 45q13 28 35 50q55 60 135 63l5 1h6h2h2l7 -1h6h2h3q1 0 4 -1l6 -1q22 -3 41 -11q43 -16 73 -48q31 -33 45 -75q6 -20 8 -42l1 -21v-29v-57v-28v-27q-1 -67 -1 -100q-1 -124 -1 -207 l-1 -71q0 -13 13 -13h144q13 0 13 13l-1 71q0 83 -1 207v100l-1 27v28v57v29q0 20 -3 39q-4 39 -17 76q-26 76 -83 134q-55 58 -132 86q-36 13 -75 19l-10 1q-5 1 -10 1h-5l-5 1h-9h-7h-2h-4h-5h-9l-9 -1q-73 -6 -137 -39q-22 -11 -45 -28v68q0 13 -13 13h-146 q-13 0 -13 -13v-878z" />
<glyph unicode="o" horiz-adv-x="1051" d="M46 453q0 -187 132 -319q132 -131 318 -131q187 0 318 131q132 132 132 319q0 186 -132 318q-131 131 -318 131q-186 0 -318 -131q-132 -132 -132 -318zM215 453q0 116 83 198q82 83 198 83q117 0 199 -83q83 -82 83 -198q0 -117 -83 -199q-82 -83 -199 -83 q-116 0 -198 83q-83 82 -83 199z" />
<glyph unicode="p" horiz-adv-x="1121" d="M144 -523q0 -13 13 -13h145q13 0 13 13v622q123 -99 280 -99q194 0 327 141q63 67 95 153q27 73 27 152q0 16 -1 33q-11 170 -135 291t-294 128h-21q-155 0 -278 -98v83q0 13 -13 13h-145q-13 0 -13 -13v-1406zM315 443v12q2 115 84 195t196 80q116 0 199 -82 q82 -83 82 -199t-82 -198q-83 -82 -199 -82q-114 0 -196 80t-84 194z" />
<glyph unicode="q" horiz-adv-x="1091" d="M53 479q-1 -17 -1 -33q0 -79 27 -152q32 -86 95 -153q133 -141 327 -141q157 0 280 99v-622q0 -13 13 -13h145q13 0 13 13v1406q0 13 -13 13h-145q-13 0 -13 -13v-83q-123 98 -278 98h-21q-171 -7 -295 -128t-134 -291zM220 449q0 116 82 199q83 82 199 82q114 0 196 -80 q81 -80 84 -195v-12q-3 -114 -84 -194q-82 -80 -196 -80q-116 0 -199 82q-82 82 -82 198z" />
<glyph unicode="r" horiz-adv-x="602" d="M140 13q0 -13 13 -13h145q13 0 13 13v542q9 73 64 122q55 50 129 50q14 0 27 -2q12 -2 15 10l29 140q2 13 -11 15q-29 5 -60 5q-104 0 -193 -56v50q0 13 -13 13h-145q-13 0 -13 -13v-876z" />
<glyph unicode="s" horiz-adv-x="732" d="M76 104q11 -11 25 -21q20 -15 43 -28q45 -26 95 -39q34 -9 64 -13q11 -1 18 -2h16l14 -1h2h5h4h9q33 1 76 9q47 11 84 30q48 24 80 66q34 44 45 100l2 15l2 15v6l1 2v3v9v9v7l-1 14q0 5 -2 14l-2 14q-12 58 -52 104q-30 36 -79 66q-32 21 -79 42l-35 15l-18 9l-12 5l-8 4 q-40 17 -63 30q-27 16 -41 31l-3 4l-3 4l-4 7l-2 3l-1 3l-1 4v1v1h-1v1l-1 9v5v5v5l1 5l1 5l1 4q4 16 14 26t27 18q16 6 41 10h4l5 1h13l11 1l11 -1q15 0 38 -4q30 -7 58 -21q6 -4 16 -10q7 -5 15 -11q9 -7 17 1l92 89q10 10 -1 19l-10 10q-11 9 -24 17q-15 11 -33 20 q-47 25 -98 37q-35 7 -63 8l-17 1l-17 -1q-9 0 -36 -2q-44 -6 -79 -19q-49 -19 -82 -54q-39 -38 -54 -94q-5 -17 -6 -26q-2 -15 -2 -26l-1 -13v-1q0 2 0 1v-2v-4v-1v-2l1 -5v-9q1 -8 3 -17l1 -8l2 -8l4 -15q2 -6 5 -14l7 -14q5 -11 15 -25l8 -12q5 -7 9 -11q31 -34 80 -63 q30 -18 78 -40l9 -3v-1l3 -1l4 -2l18 -8l37 -17q75 -35 101 -66q13 -16 16 -33l1 -5q1 -2 0 -4l1 -5v-2v-2l-1 -9v-2v-3v-3l-1 -3l-1 -4q-8 -35 -41 -53q-16 -8 -41 -14q-28 -4 -47 -4l-9 -1l-14 1q-7 0 -13 1h-4l-4 1q-3 0 -9 1l-5 1l-5 1l-9 2l-9 3q-30 8 -58 24l-15 10 q-7 5 -15 12q-9 6 -17 -1l-104 -99q-5 -5 -5 -10t5 -9z" />
<glyph unicode="t" horiz-adv-x="640" d="M45 746q0 -13 13 -13h137v-477q0 -78 34 -140q35 -62 96 -92q48 -24 101 -24q78 0 149 49q7 4 7 9q0 4 -4 9l-85 114q-7 10 -17 4q-27 -17 -50 -17q-13 0 -25 6q-38 19 -38 82v477h137q13 0 13 13v142q0 13 -13 13h-137v189q0 13 -13 13h-143q-13 0 -13 -13l1 -189h-137 q-13 0 -13 -13v-142z" />
<glyph unicode="u" horiz-adv-x="997" d="M125 819q0 -83 1 -209v-48l1 -26v-27v-113v-14v-15q1 -19 2 -36q3 -40 14 -78q24 -77 80 -138t131 -90q37 -14 76 -21l9 -1l10 -1l10 -1l11 -1h15h5h2h5l9 1q73 4 139 37q24 12 49 30v-48q0 -13 13 -13h145q13 0 13 13v876q0 13 -13 13h-145q-13 0 -13 -13v-526l-1 -11 l-1 -15v-5v-3l-1 -3q-1 -7 -3 -18q-6 -24 -16 -45q-14 -29 -36 -51q-56 -59 -138 -62h-5h-5l-13 1h-9l-5 1l-6 1q-21 4 -42 12q-41 17 -72 51q-30 34 -42 77q-6 21 -8 43v24v14v15v58v28l1 27v101q1 126 1 209l1 71q0 14 -13 14h-143q-13 0 -13 -14v-71z" />
<glyph unicode="v" horiz-adv-x="849" d="M31 890l326 -878q3 -9 12 -9h114q10 0 13 9l325 878q1 3 1 5q0 3 -2 7q-4 5 -11 5h-155q-9 0 -12 -8l-216 -581l-215 581q-3 8 -13 8h-155q-7 0 -10 -5q-3 -4 -3 -8q0 -2 1 -4z" />
<glyph unicode="w" horiz-adv-x="1336" d="M31 890l309 -878q3 -9 13 -9h106q10 0 13 9l198 595l198 -595q3 -9 13 -9h106q9 0 13 9l309 878q1 2 1 4q0 4 -3 8q-4 5 -11 5h-155q-9 0 -12 -8l-198 -571l-185 570q-3 9 -13 9h-126q-10 0 -13 -9l-185 -570l-198 571q-3 8 -13 8h-154q-7 0 -11 -5q-3 -4 -3 -8 q0 -2 1 -4z" />
<glyph unicode="x" horiz-adv-x="984" d="M71 7q4 -7 12 -7h183q6 0 10 5l223 300l223 -300q4 -5 11 -5h183q8 0 11 7q2 3 2 6q0 4 -3 8l-319 429l319 429q3 3 3 7q0 3 -2 6q-3 8 -11 8h-183q-7 0 -11 -6l-223 -299l-223 299q-4 6 -10 6h-183q-8 0 -12 -8q-1 -3 -1 -6q0 -4 2 -7l319 -429l-319 -429q-2 -4 -2 -8 q0 -3 1 -6z" />
<glyph unicode="y" horiz-adv-x="937" d="M32 886l351 -848l-152 -378q-2 -7 2 -12q3 -6 10 -6h157q9 0 12 8l497 1236q1 3 1 6t-2 6q-4 6 -11 6h-157q-8 0 -12 -8l-253 -631l-262 631q-3 8 -12 8h-157q-7 0 -11 -6q-2 -3 -2 -6t1 -6z" />
<glyph unicode="z" horiz-adv-x="896" d="M68 13q0 -13 13 -13h723q13 0 13 13v143q0 13 -13 13h-500l502 576q3 4 3 9v133q0 13 -13 13h-699q-13 0 -13 -13v-143q0 -13 13 -13h473l-498 -571q-4 -4 -4 -9v-138z" />
<glyph unicode="{" d="M1 728q-2 6 0 12l71 140q20 276 101 480l26 66q5 12 17 7l133 -52q12 -5 7 -17l-26 -66q-74 -187 -91 -447l-1 -17l-51 -101l49 -99l1 -18q14 -279 93 -479l26 -66q5 -12 -7 -17l-133 -53q-12 -4 -17 8l-26 66q-87 218 -104 515z" />
<glyph unicode="|" d="M0 -75v1566q0 16 15 16h75q15 0 15 -16v-1566q0 -15 -15 -15h-75q-15 0 -15 15z" />
<glyph unicode="}" d="M1 71l27 66q78 200 92 479l1 18l49 99l-51 101l-1 17q-17 260 -90 447l-27 66q-4 12 8 17l132 52q13 5 17 -7l27 -66q80 -204 101 -480l70 -140q3 -6 0 -12l-68 -138q-17 -297 -103 -515l-27 -66q-4 -12 -17 -8l-132 53q-12 5 -8 17z" />
<glyph unicode="~" horiz-adv-x="825" d="M1209 651q0 -9 9 -12l21 -7q57 -18 124 -18q36 0 81 6l39 5l39 6q99 15 146 15q54 0 99 -14l38 -12q7 -2 12 2t5 11v148q0 7 -7 11q-15 8 -23 11q-57 18 -124 18q-36 0 -80 -6l-40 -5l-39 -6q-98 -15 -146 -15q-54 0 -99 14l-38 12q-6 2 -12 -2q-5 -4 -5 -11v-151z" />
<glyph unicode="&#xa1;" horiz-adv-x="676" d="M279 1087q0 -38 26 -64q27 -27 64 -27t64 26q26 27 26 65q0 37 -26 64q-27 26 -64 26t-64 -26q-26 -27 -26 -64zM293 13q0 -13 14 -13h125q13 0 13 13v851q0 13 -13 13h-125q-14 0 -14 -13v-851z" />
<glyph unicode="&#xa2;" horiz-adv-x="1139" d="M0 738q-5 -118 48 -222q50 -101 143 -166l-103 -333q-2 -6 2 -12q4 -5 10 -5h145q9 0 12 9l84 272q54 -14 109 -14q131 0 241 71q12 7 4 18l-80 118q-7 10 -18 4q-67 -42 -147 -42q-30 0 -59 7l165 535q22 -9 40 -20q11 -7 18 3l80 118q8 12 -4 19q-38 24 -84 41l86 279 q2 6 -2 12q-4 5 -10 5h-145q-9 0 -12 -9l-80 -259l-29 -1q-168 -13 -287 -136q-119 -124 -127 -292zM170 746q9 90 70 158q61 69 149 88l-144 -466q-87 93 -75 220z" />
<glyph unicode="&#xa3;" d="M309 249q-2 -6 2 -11t11 -5h632q13 0 13 13v143q0 13 -13 13h-434l31 126h227q13 0 13 13v144q0 13 -13 13h-187l12 49h175q13 0 13 13v143q0 13 -13 13h-134q16 53 60 87q45 33 100 33t98 -31q11 -8 18 2l93 109q9 10 -2 19q-91 71 -207 71q-118 0 -211 -76 q-93 -75 -117 -191z" />
<glyph unicode="&#xa4;" horiz-adv-x="168" d="M306 403l52 -53q14 -14 28 0l104 104q45 -32 102 -48q43 -12 85 -12q43 0 85 12q56 16 101 48l104 -104q14 -14 28 0l52 53q14 14 0 28l-103 103q31 46 48 102q12 42 12 85t-12 85q-17 56 -48 102l103 103q14 14 0 28l-52 53q-14 14 -28 0l-104 -104q-45 31 -102 48 q-42 12 -83 12q-45 0 -89 -14q-55 -16 -99 -46l-104 104q-14 14 -28 0l-52 -53q-14 -14 0 -28l104 -104q-31 -44 -47 -99q-13 -44 -13 -87q0 -42 12 -84q16 -57 48 -103l-104 -103q-14 -14 0 -28zM454 720q0 30 10 60q17 58 56 98q40 39 98 56q29 9 58 9q30 0 58 -8 q59 -17 100 -57q40 -41 57 -99q9 -29 9 -58t-9 -58q-17 -58 -57 -99q-41 -40 -99 -57q-28 -8 -58 -8q-29 0 -58 8q-58 17 -99 57q-41 41 -57 100q-9 28 -9 56z" />
<glyph unicode="&#xa5;" horiz-adv-x="1262" d="M55 1324l122 -295h-56q-14 0 -14 -14v-66q0 -14 14 -14h96l36 -88h-132q-14 0 -14 -14v-66q0 -14 14 -14h171l119 -286l-145 -358q-2 -7 2 -13t11 -6h72q10 0 13 8l263 655h174q14 0 14 14v66q0 14 -14 14h-136l35 88h101q14 0 14 14v66q0 14 -14 14h-63l119 295 q3 7 -2 13q-4 6 -11 6h-72q-9 0 -13 -9l-122 -305h-357l-127 305q-4 9 -13 9h-72q-7 0 -12 -6q-4 -7 -1 -13zM319 935h280l-36 -88h-208zM394 753h132l-65 -161z" />
<glyph unicode="&#xa6;" d="M427 371h160v-789h-160v789zM427 789v789h160v-789h-160z" />
<glyph unicode="&#xa7;" d="M175 324q10 -8 22 -15q15 -10 32 -17q43 -19 92 -19q76 0 122 39q45 39 45 104q0 61 -49 104q-19 15 -45 29q-10 5 -21 11l-10 4l-10 4l-16 8q-66 29 -66 53v5v6q2 7 7 13q13 14 51 14v1q73 2 116 40q43 39 43 103q0 61 -49 103q-19 16 -45 30q-10 5 -21 10l-10 5l-10 4 l-16 8q-66 28 -66 53v5v6q2 7 7 12q13 15 51 15q21 0 41 -7q7 -3 15 -7q5 -3 10 -7q10 -6 18 2l48 47q11 10 -1 20q-9 8 -19 14q-14 9 -29 15q-39 17 -83 17q-69 0 -111 -36t-42 -96q0 -56 45 -95q17 -14 41 -27q8 -5 19 -9l9 -5l9 -3l16 -8q45 -19 62 -34q17 -14 17 -32v-3 v-3q0 -4 -1 -8q-2 -9 -8 -16q-17 -20 -64 -20q-66 -2 -105 -38q-40 -35 -40 -94q0 -56 45 -94q17 -15 41 -27q8 -5 19 -10l9 -4l9 -4l16 -8q45 -19 62 -33q17 -15 17 -33v-3v-3q0 -4 -1 -7q-2 -10 -8 -17q-17 -19 -64 -19q-26 0 -49 9q-10 3 -18 8q-7 4 -13 8q-9 7 -17 -1 l-49 -46q-11 -11 0 -21z" />
<glyph unicode="&#xa8;" horiz-adv-x="1024" d="M461 1777q0 40 28 68t68 28t68 -28t28 -68t-28 -68t-68 -28t-68 28t-28 68zM719 1777q0 40 29 68q28 28 67 28q40 0 68 -28q29 -28 29 -68t-29 -68q-28 -28 -68 -28q-39 0 -67 28q-29 28 -29 68z" />
<glyph unicode="&#xa9;" horiz-adv-x="1197" d="M109 718q0 197 139 337q140 140 337 140t337 -140t140 -337t-140 -337t-337 -140t-337 140q-139 140 -139 337zM203 718q0 -158 112 -270t270 -112t270 112t112 270t-112 270t-270 112t-270 -112t-112 -270zM357 725q2 94 71 162t164 69q67 1 125 -33q12 -7 4 -19 l-38 -56q-7 -10 -18 -4q-43 24 -94 16q-47 -8 -81 -44t-38 -84q-6 -64 37 -111t106 -47q38 0 70 18q11 6 18 -5l38 -55q8 -12 -4 -19q-56 -34 -122 -34q-100 0 -171 72q-70 73 -67 174z" />
<glyph unicode="&#xaa;" horiz-adv-x="648" />
<glyph unicode="&#xab;" horiz-adv-x="944" d="M215 708q-9 9 0 19l363 363q10 9 19 0l101 -101q9 -10 0 -19l-253 -253l253 -252q9 -10 0 -19l-101 -101q-9 -9 -19 0zM631 708q-9 9 0 19l363 363q10 9 19 0l101 -101q9 -10 0 -19l-253 -253l253 -252q9 -10 0 -19l-101 -101q-9 -9 -19 0z" />
<glyph unicode="&#xac;" d="M87 667v100h840v-491l-1 -1h-98v392h-741z" />
<glyph unicode="&#xad;" horiz-adv-x="707" d="M89 646v143q0 13 13 13h481q13 0 13 -13v-143q0 -13 -13 -13h-481q-13 0 -13 13z" />
<glyph unicode="&#xae;" horiz-adv-x="1674" d="M179 717q0 197 139 336q140 140 337 140t336 -140q140 -139 140 -336t-140 -337q-139 -139 -336 -139t-337 139q-139 140 -139 337zM273 717q0 -158 112 -270t270 -112t269 112q112 112 112 270t-112 269q-111 112 -269 112t-270 -112q-112 -111 -112 -269zM514 517 q0 -14 14 -14h67q14 0 14 14v151h32l74 -157q3 -8 12 -8h74q8 0 12 7q4 6 1 13l-75 158q35 18 55 52q21 35 18 76q-4 51 -44 87q-39 34 -92 34h-148q-14 0 -14 -13v-400zM609 762v74h72q15 0 26 -11t11 -26t-11 -26t-26 -11h-72z" />
<glyph unicode="&#xaf;" horiz-adv-x="2048" d="M214 1246v143q0 13 13 13h1071q13 0 13 -13v-143q0 -13 -13 -13h-1071q-13 0 -13 13z" />
<glyph unicode="&#xb0;" horiz-adv-x="674" d="M60 1164q0 116 81.5 197t197.5 81q115 0 196 -81.5t81 -196.5q0 -114 -82 -196t-197 -82q-117 0 -197 81t-80 197zM130 1163q0 -87 61 -147t148 -60t147 60t60 147t-60.5 148t-146.5 61t-147.5 -61t-61.5 -148z" />
<glyph unicode="&#xb1;" d="M303 268q0 -13 13 -13h671q13 0 13 13v143q0 13 -13 13h-671q-13 0 -13 -13v-143zM305 826q0 -13 13 -13h251v-251q0 -13 13 -13h143q13 0 13 13v251h251q13 0 13 13v143q0 13 -13 13h-251v251q0 13 -13 13h-143q-13 0 -13 -13v-251h-251q-13 0 -13 -13v-143z" />
<glyph unicode="&#xb2;" />
<glyph unicode="&#xb3;" />
<glyph unicode="&#xb4;" horiz-adv-x="1024" d="M230 1266q-4 -13 9 -18l48 -19q13 -5 18 8l81 212q4 12 -9 17l-48 18q-13 5 -18 -7z" />
<glyph unicode="&#xb5;" horiz-adv-x="1180" d="M127 -146v1007q0 14 13 14h67q14 0 14 -14v-476l2 -41v-16l1 -7q0 -4 1 -8q1 -12 3 -22q6 -29 20 -57q16 -35 43 -64q32 -33 74 -54q46 -23 98 -25h13h14l13 1l13 2q28 4 53 14q53 21 92 63q38 41 56 96q8 25 10 53q1 11 1 28v31v120v28v27v52q-1 133 -1 221v34 q0 13 14 13h67q14 0 13 -13v-34v-221v-25v-27q-1 -30 -1 -55v-120v-31v-17q-1 -11 -2 -19q-3 -38 -14 -73q-25 -74 -77 -130q-53 -56 -125 -84q-35 -13 -72 -19l-18 -2l-19 -1h-8l-4 -1h-3h-2l-18 1q-70 5 -132 36q-56 28 -97 74l-4 5l-4 4v-268q0 -14 -14 -14h-67 q-13 0 -13 14z" />
<glyph unicode="&#xb6;" horiz-adv-x="1024" d="M209 977q0 -107 71 -173t193 -72v-504q0 -14 14 -14h31q14 0 14 14v944h117v-944q0 -14 13 -14h30q14 0 14 14v944h75q14 0 14 14v22q0 13 -14 13h-297q-125 0 -200 -67t-75 -177z" />
<glyph unicode="&#xb7;" horiz-adv-x="508" d="M370 719q0 40 28 68q29 29 69 29t68 -29q29 -28 29 -68t-29 -69q-28 -28 -68 -28t-69 28q-28 29 -28 69z" />
<glyph unicode="&#xb9;" />
<glyph unicode="&#xba;" horiz-adv-x="718" />
<glyph unicode="&#xbb;" horiz-adv-x="944" d="M215 446q-9 9 0 19l253 252l-253 253q-9 9 0 19l101 101q9 9 19 0l363 -363q9 -10 0 -19l-363 -363q-10 -9 -19 0zM631 446q-9 9 0 19l253 252l-253 253q-9 9 0 19l101 101q9 9 19 0l363 -363q9 -10 0 -19l-363 -363q-10 -9 -19 0z" />
<glyph unicode="&#xbc;" horiz-adv-x="1708" />
<glyph unicode="&#xbd;" horiz-adv-x="1964" />
<glyph unicode="&#xbe;" horiz-adv-x="1708" />
<glyph unicode="&#xbf;" horiz-adv-x="748" d="M237 297q1 -44 11 -82q10 -45 33 -82q24 -40 61 -69q35 -27 78 -42q36 -14 81 -19l10 -1l9 -1l21 -1h19h10h10q81 5 155 41q35 18 67 42q17 12 31 25l9 9q7 6 12 12q10 10 -1 19l-86 71q-8 7 -17 -1l-8 -8q-10 -9 -21 -17q-23 -16 -47 -27q-49 -24 -102 -26l-7 -1h-6h-15 l-13 1l-7 1l-6 1q-28 3 -49 12q-45 17 -66 53q-11 18 -16 41q-6 22 -6 50v2v4v9l1 4q0 3 1 6q0 8 4 22q6 21 18 40q24 35 77 68q34 21 111 59l34 16q7 4 7 12v38l1 344q0 13 -13 13h-125q-12 0 -12 -13l1 -299q-50 -25 -83 -47q-36 -23 -63 -47q-33 -30 -56 -64 q-24 -38 -36 -82q-7 -24 -9 -43q0 -5 -1 -12v-12l-1 -8v-11zM472 1138q0 -36 26 -62t62 -26t62 26t26 62t-26 62t-62 26t-62 -26t-26 -62z" />
<glyph unicode="&#xc0;" horiz-adv-x="1377" d="M19 18q-3 -6 1 -12t11 -6h160q9 0 12 8l229 551h505l229 -551q3 -8 12 -8h160q7 0 10 6q4 6 2 12l-585 1406q-3 8 -12 8h-138q-8 0 -12 -8zM438 1628l21 140q2 12 14 10l448 -66q12 -3 10 -15l-20 -140q-2 -11 -15 -10l-448 67q-12 1 -10 14zM504 732l180 435l181 -435 h-361z" />
<glyph unicode="&#xc1;" horiz-adv-x="1377" d="M19 18q-3 -6 1 -12t11 -6h160q9 0 12 8l229 551h505l229 -551q3 -8 12 -8h160q7 0 10 6q4 6 2 12l-585 1406q-3 8 -12 8h-138q-8 0 -12 -8zM438 1697q-2 12 10 15l448 66q12 2 14 -10l21 -140q2 -13 -10 -14l-448 -67q-13 -1 -15 10zM504 732l180 435l181 -435h-361z" />
<glyph unicode="&#xc2;" horiz-adv-x="1377" d="M19 18q-3 -6 1 -12t11 -6h160q9 0 12 8l229 551h505l229 -551q3 -8 12 -8h160q7 0 10 6q4 6 2 12l-585 1406q-3 8 -12 8h-138q-8 0 -12 -8zM402 1639q-4 11 7 16l271 107q6 2 9 0l271 -110q11 -5 6 -17l-53 -130q-6 -11 -16 -7l-214 88l-212 -85q-12 -5 -17 7zM504 732 l180 435l181 -435h-361z" />
<glyph unicode="&#xc3;" horiz-adv-x="1377" d="M19 18q-3 -6 1 -12t11 -6h160q9 0 12 8l229 551h505l229 -551q3 -8 12 -8h160q7 0 10 6q4 6 2 12l-585 1406q-3 8 -12 8h-138q-8 0 -12 -8zM392 1600v143q0 7 5 10q5 4 11 2l37 -11q42 -14 94 -14q46 0 139 15l37 6l37 5q43 5 77 5q65 0 118 -17q8 -2 22 -10q7 -4 7 -11 v-141q0 -6 -5 -10t-11 -2l-37 12q-41 13 -94 13q-45 0 -139 -15l-37 -6l-38 -5q-42 -5 -76 -5q-64 0 -119 17l-19 7q-9 2 -9 12zM504 732l180 435l181 -435h-361z" />
<glyph unicode="&#xc4;" horiz-adv-x="1377" d="M19 18q-3 -6 1 -12t11 -6h160q9 0 12 8l229 551h505l229 -551q3 -8 12 -8h160q7 0 10 6q4 6 2 12l-585 1406q-3 8 -12 8h-138q-8 0 -12 -8zM459 1643q0 -40 28 -68t68 -28t68 28t28 68t-28 68t-68 28t-68 -28t-28 -68zM504 732l180 435l181 -435h-361zM717 1643 q0 -40 29 -68q28 -28 67 -28q40 0 68 28q29 28 29 68t-29 68q-28 28 -68 28q-39 0 -67 -28q-29 -28 -29 -68z" />
<glyph unicode="&#xc5;" horiz-adv-x="1377" d="M19 18q-3 -6 1 -12t11 -6h160q9 0 12 8l229 551h505l229 -551q3 -8 12 -8h160q7 0 10 6q4 6 2 12l-585 1406q-3 8 -12 8h-138q-8 0 -12 -8zM504 732l180 435l181 -435h-361zM517 1678q0 -70 49 -119t118 -49t118 49q50 49 50 119q0 69 -50 118q-49 49 -118 49t-118 -49 t-49 -118zM635 1678q0 19 14 34q14 14 35 14q20 0 35 -14q14 -15 14 -34q0 -20 -14 -35q-15 -14 -35 -14t-35 14q-14 14 -14 35z" />
<glyph unicode="&#xc6;" horiz-adv-x="1838" d="M19 18q-3 -6 1 -12t11 -6h160q9 0 12 8l256 617h356v-612q0 -13 13 -13h930q13 0 13 13v156q0 13 -13 13h-761v443h551q13 0 13 13v156q0 13 -13 13h-551v443h761q13 0 13 13v156q0 13 -13 13h-1143q-8 0 -12 -8zM535 807l184 443h96v-443h-280z" />
<glyph unicode="&#xc7;" horiz-adv-x="1231" d="M87 754q-16 -287 171 -505q184 -215 464 -247v-117q0 -15 15 -15h37q30 0 48 -24q18 -25 9 -55q-9 -29 -38 -38q-27 -8 -50 6q-22 13 -28 38q-2 13 -15 13h-74q-17 0 -15 -17q6 -64 54 -106q49 -43 114 -41q64 2 110 49q47 46 49 110q1 55 -31 100q-31 43 -81 60v33 q201 7 367 115q11 7 4 18l-88 130q-7 10 -18 3q-131 -85 -289 -85q-222 0 -379 159q-158 160 -155 383q3 205 145 357q143 152 347 168q180 14 330 -82q11 -7 18 3l88 130q7 11 -4 18q-203 132 -447 113q-266 -21 -454 -214q-189 -193 -204 -460z" />
<glyph unicode="&#xc8;" horiz-adv-x="1197" d="M174 13q0 -13 13 -13h930q13 0 13 13v156q0 13 -13 13h-761v443h551q13 0 13 13v156q0 13 -13 13h-551v443h761q13 0 13 13v156q0 13 -13 13h-930q-13 0 -13 -13v-1406zM405 1628l21 139q2 12 14 10l448 -66q12 -2 10 -14l-20 -140q-2 -11 -15 -10l-448 66q-12 2 -10 15z " />
<glyph unicode="&#xc9;" horiz-adv-x="1197" d="M174 13q0 -13 13 -13h930q13 0 13 13v156q0 13 -13 13h-761v443h551q13 0 13 13v156q0 13 -13 13h-551v443h761q13 0 13 13v156q0 13 -13 13h-930q-13 0 -13 -13v-1406zM405 1697q-2 12 10 14l448 66q12 2 14 -10l21 -139q2 -13 -10 -15l-448 -66q-13 -1 -15 10z" />
<glyph unicode="&#xca;" horiz-adv-x="1197" d="M174 13q0 -13 13 -13h930q13 0 13 13v156q0 13 -13 13h-761v443h551q13 0 13 13v156q0 13 -13 13h-551v443h761q13 0 13 13v156q0 13 -13 13h-930q-13 0 -13 -13v-1406zM370 1639q-5 11 7 16l271 107q5 2 9 0l270 -110q11 -5 7 -17l-54 -130q-5 -11 -16 -7l-213 88 l-213 -85q-12 -5 -16 7z" />
<glyph unicode="&#xcb;" horiz-adv-x="1197" d="M174 13q0 -13 13 -13h930q13 0 13 13v156q0 13 -13 13h-761v443h551q13 0 13 13v156q0 13 -13 13h-551v443h761q13 0 13 13v156q0 13 -13 13h-930q-13 0 -13 -13v-1406zM426 1643q0 -40 28 -68t68 -28t68 28t28 68t-28 68t-68 28q-39 0 -68 -28q-28 -28 -28 -68z M684 1643q0 -40 29 -68q28 -28 67 -28q40 0 68 28q29 28 29 68t-29 68q-28 28 -68 28q-39 0 -67 -28q-29 -28 -29 -68z" />
<glyph unicode="&#xcc;" horiz-adv-x="583" d="M63 1628l21 139q2 13 14 10l448 -66q12 -2 10 -14l-20 -140q-2 -11 -15 -10l-448 67q-12 1 -10 14zM218 13q0 -13 13 -13h157q13 0 13 13v1406q0 13 -13 13h-157q-13 0 -13 -13v-1406z" />
<glyph unicode="&#xcd;" horiz-adv-x="556" d="M36 1697q-2 12 10 14l448 66q12 3 14 -10l21 -139q2 -13 -10 -14l-448 -67q-13 -1 -15 10zM191 13q0 -13 13 -13h157q13 0 13 13v1406q0 13 -13 13h-157q-13 0 -13 -13v-1406z" />
<glyph unicode="&#xce;" horiz-adv-x="632" d="M38 1639q-4 11 7 16l271 107q6 2 9 0l270 -110q12 -5 7 -17l-53 -130q-6 -11 -16 -7l-214 88l-213 -85q-11 -5 -16 7zM229 13q0 -13 13 -13h157q13 0 13 13v1406q0 13 -13 13h-157q-13 0 -13 -13v-1406z" />
<glyph unicode="&#xcf;" horiz-adv-x="537" d="M61 1643q0 -40 28 -68t68 -28t68 28t28 68t-28 68t-68 28t-68 -28t-28 -68zM195 13q0 -13 13 -13h157q13 0 13 13v1406q0 13 -13 13h-157q-13 0 -13 -13v-1406zM319 1643q0 -40 29 -68q28 -28 67 -28q40 0 68 28q29 28 29 68t-29 68q-28 28 -68 28q-39 0 -67 -28 q-29 -28 -29 -68z" />
<glyph unicode="&#xd0;" horiz-adv-x="1485" d="M174 13q0 -13 13 -13h442q296 0 510 205t220 499q6 301 -206 516q-211 215 -512 215h-454q-13 0 -13 -13v-1409zM357 183v441h409q13 0 13 13v157q0 13 -13 13h-409v445h284q222 0 378 -156q157 -157 157 -378t-157 -378q-156 -157 -378 -157h-284z" />
<glyph unicode="&#xd1;" horiz-adv-x="1387" d="M174 13q0 -13 13 -13h148q13 0 13 13v1011l763 -1019q4 -5 10 -5h71q13 0 13 13v1407q0 13 -13 13h-148q-13 0 -13 -13v-1018l-768 1025q-4 6 -10 6h-66q-13 0 -13 -13v-1407zM397 1600v143q0 7 5 10q5 4 11 2l37 -11q42 -14 94 -14q46 0 139 15l37 6l37 5q43 5 77 5 q65 0 118 -17q8 -2 22 -10q7 -4 7 -11v-141q0 -5 -5 -10q-5 -4 -11 -2l-37 12q-41 13 -94 13q-45 0 -139 -15l-37 -6l-38 -5q-42 -5 -76 -5q-64 0 -119 17l-19 7q-9 2 -9 12z" />
<glyph unicode="&#xd2;" horiz-adv-x="1623" d="M71 716q0 -296 210 -506t506 -210t506 210t210 506t-210 506t-506 210t-506 -210t-210 -506zM254 716q0 220 156 377q156 156 377 156q220 0 377 -156q156 -157 156 -377q0 -221 -156 -377q-157 -156 -377 -156q-221 0 -377 156t-156 377zM540 1628l21 139q3 12 14 10 l448 -66q12 -2 10 -14l-20 -140q-2 -11 -15 -10l-448 66q-12 2 -10 15z" />
<glyph unicode="&#xd3;" horiz-adv-x="1623" d="M71 716q0 -296 210 -506t506 -210t506 210t210 506t-210 506t-506 210t-506 -210t-210 -506zM254 716q0 220 156 377q156 156 377 156q220 0 377 -156q156 -157 156 -377q0 -221 -156 -377q-157 -156 -377 -156q-221 0 -377 156t-156 377zM540 1697q-2 12 10 14l449 66 q11 2 14 -10l20 -139q3 -13 -10 -15l-447 -66q-13 -1 -16 10z" />
<glyph unicode="&#xd4;" horiz-adv-x="1623" d="M71 716q0 -296 210 -506t506 -210t506 210t210 506t-210 506t-506 210t-506 -210t-210 -506zM254 716q0 220 156 377q156 156 377 156q220 0 377 -156q156 -157 156 -377q0 -221 -156 -377q-157 -156 -377 -156q-221 0 -377 156t-156 377zM505 1639q-5 11 7 16l271 107 q5 2 9 0l270 -110q11 -5 7 -17l-54 -130q-5 -11 -16 -7l-213 88l-213 -85q-12 -5 -16 7z" />
<glyph unicode="&#xd5;" horiz-adv-x="1623" d="M71 716q0 -296 210 -506t506 -210t506 210t210 506t-210 506t-506 210t-506 -210t-210 -506zM254 716q0 220 156 377q156 156 377 156q220 0 377 -156q156 -157 156 -377q0 -221 -156 -377q-157 -156 -377 -156q-221 0 -377 156t-156 377zM495 1600v143q0 7 5 10 q5 4 11 2l37 -11q42 -14 94 -14q46 0 139 15l37 6l37 5q43 5 77 5q64 0 118 -17q7 -2 22 -10q7 -4 7 -11v-141q0 -6 -5 -10t-11 -2l-37 12q-41 13 -94 13q-46 0 -139 -15l-37 -6l-38 -5q-42 -5 -76 -5q-64 0 -119 17l-19 7q-9 2 -9 12z" />
<glyph unicode="&#xd6;" horiz-adv-x="1623" d="M71 716q0 -296 210 -506t506 -210t506 210t210 506t-210 506t-506 210t-506 -210t-210 -506zM254 716q0 220 156 377q156 156 377 156q220 0 377 -156q156 -157 156 -377q0 -221 -156 -377q-157 -156 -377 -156q-221 0 -377 156t-156 377zM561 1643q0 -40 29 -68 q27 -28 67 -28q41 0 68 28q29 28 29 68t-29 68q-28 28 -68 28q-39 0 -67 -28q-29 -28 -29 -68zM819 1643q0 -40 29 -68q28 -28 68 -28t67 28q29 28 29 68t-29 68q-28 28 -67 28t-68 -28t-29 -68z" />
<glyph unicode="&#xd7;" d="M347 521l101 -101q9 -9 18 0l177 178l178 -178q9 -9 18 0l101 101q9 9 0 18l-177 178l177 177q9 9 0 19l-101 100q-9 10 -18 0l-178 -177l-177 177q-9 10 -18 0l-101 -100q-9 -10 0 -19l177 -177l-177 -178q-9 -9 0 -18z" />
<glyph unicode="&#xd8;" horiz-adv-x="1636" d="M81 716q0 -244 150 -437l-78 -78q-9 -9 0 -18l111 -111q9 -9 18 0l78 78q193 -150 437 -150q296 0 506 210t210 506q0 244 -150 437l78 78q9 9 0 18l-111 111q-9 9 -18 0l-78 -78q-193 150 -437 150q-296 0 -506 -210t-210 -506zM264 716q0 220 156 377q156 156 377 156 q169 0 307 -97l-743 -743q-97 138 -97 307zM490 280l743 743q97 -138 97 -307q0 -221 -156 -377q-157 -156 -377 -156q-169 0 -307 97z" />
<glyph unicode="&#xd9;" horiz-adv-x="1347" d="M151 525q0 -217 154 -372q154 -157 369 -153q210 4 358 154t148 360v905q0 13 -13 13h-156q-13 0 -13 -13v-905q0 -140 -102 -239q-102 -98 -243 -93q-134 5 -228 105q-92 100 -92 236v896q0 13 -13 13h-156q-13 0 -13 -13v-894zM419 1628l21 139q2 12 14 10l448 -66 q12 -2 10 -14l-20 -140q-2 -11 -15 -10l-448 66q-12 2 -10 15z" />
<glyph unicode="&#xda;" horiz-adv-x="1347" d="M151 525q0 -217 154 -372q154 -157 369 -153q210 4 358 154t148 360v905q0 13 -13 13h-156q-13 0 -13 -13v-905q0 -140 -102 -239q-102 -98 -243 -93q-134 5 -228 105q-92 100 -92 236v896q0 13 -13 13h-156q-13 0 -13 -13v-894zM419 1697q-2 12 10 14l448 66 q12 2 14 -10l21 -139q2 -13 -10 -15l-448 -66q-13 -1 -15 10z" />
<glyph unicode="&#xdb;" horiz-adv-x="1347" d="M151 525q0 -217 154 -372q154 -157 369 -153q210 4 358 154t148 360v905q0 13 -13 13h-156q-13 0 -13 -13v-905q0 -140 -102 -239q-102 -98 -243 -93q-134 5 -228 105q-92 100 -92 236v896q0 13 -13 13h-156q-13 0 -13 -13v-894zM384 1640q-5 11 7 16l271 107q5 1 9 0 l270 -110q11 -5 7 -17l-54 -130q-5 -12 -16 -7l-213 88l-213 -85q-12 -6 -16 7z" />
<glyph unicode="&#xdc;" horiz-adv-x="1347" d="M151 525q0 -217 154 -372q154 -157 369 -153q210 4 358 154t148 360v905q0 13 -13 13h-156q-13 0 -13 -13v-905q0 -140 -102 -239q-102 -98 -243 -93q-134 5 -228 105q-92 100 -92 236v896q0 13 -13 13h-156q-13 0 -13 -13v-894zM440 1644q0 -40 28 -68t68 -28t68 28 t28 68t-28 68t-68 28t-68 -28t-28 -68zM698 1644q0 -40 29 -68q28 -28 67 -28q40 0 68 28q29 27 29 68q0 40 -29 68q-28 28 -68 28q-39 0 -67 -28q-29 -28 -29 -68z" />
<glyph unicode="&#xdd;" horiz-adv-x="952" d="M-9 1411l424 -675v-723q0 -13 13 -13h148q13 0 13 13v721l425 677q4 7 0 13q-4 7 -11 7h-175q-7 0 -11 -6l-315 -501l-315 501q-3 6 -11 6h-174q-8 0 -11 -7q-4 -6 0 -13zM256 1697q-2 12 10 14l448 66q12 2 14 -10l21 -139q2 -14 -10 -15l-448 -66q-13 -2 -15 10z" />
<glyph unicode="&#xde;" horiz-adv-x="1120" />
<glyph unicode="&#xdf;" horiz-adv-x="1251" />
<glyph unicode="&#xe0;" horiz-adv-x="891" d="M91 269q0 -126 78 -197q77 -71 214 -71q133 0 231 81q4 -36 9 -71q1 -11 12 -11h137q14 0 13 14q-5 33 -9 66q-5 45 -9 88q-11 117 -11 199v49q1 17 1 32q2 108 -11 172q-19 97 -76 155q-81 83 -232 83q-107 0 -196 -42q-33 -15 -60 -35q-11 -8 -21 -16q-8 -6 -14 -12 q-10 -9 0 -18l100 -93q8 -7 17 0q10 8 22 15q17 11 36 19q53 21 116 21q83 0 117 -35q33 -33 39 -119q-298 19 -422 -90q-81 -71 -81 -184zM191 1174q-2 -12 11 -14l448 -67q12 -2 14 10l21 140q2 12 -10 14l-449 67q-12 2 -14 -11zM252 269q0 40 26 63q60 53 233 53 q39 0 82 -3q-16 -129 -92 -184q-28 -21 -64 -30q-26 -7 -54 -7q-81 0 -111 34q-20 23 -20 74z" />
<glyph unicode="&#xe1;" horiz-adv-x="891" d="M91 269q0 -126 78 -197q77 -71 214 -71q133 0 231 81q4 -36 9 -71q1 -11 12 -11h137q14 0 13 14q-5 33 -9 66q-5 45 -9 88q-11 117 -11 199v49q1 17 1 32q2 108 -11 172q-19 97 -76 155q-81 83 -232 83q-107 0 -196 -42q-33 -15 -60 -35q-11 -8 -21 -16q-8 -6 -14 -12 q-10 -9 0 -18l100 -93q8 -7 17 0q10 8 22 15q17 11 36 19q53 21 116 21q83 0 117 -35q33 -33 39 -119q-298 19 -422 -90q-81 -71 -81 -184zM191 1243l21 -140q2 -12 14 -10l449 67q12 2 10 14l-21 139q-2 13 -14 11l-448 -67q-13 -2 -11 -14zM252 269q0 40 26 63 q60 53 233 53q39 0 82 -3q-16 -129 -92 -184q-28 -21 -64 -30q-26 -7 -54 -7q-81 0 -111 34q-20 23 -20 74z" />
<glyph unicode="&#xe2;" horiz-adv-x="890" d="M91 268q0 -125 77 -196q77 -72 214 -72q133 0 231 82q4 -36 8 -71q2 -11 13 -11h137q14 0 12 14l-8 66q-6 45 -10 88q-11 116 -11 199q0 16 1 49v31q2 109 -11 173q-19 96 -75 154q-82 83 -233 83q-106 0 -195 -42q-32 -15 -60 -35q-11 -8 -21 -16l-14 -12q-10 -9 0 -18 l101 -93q8 -7 16 0q10 8 22 15q17 11 36 19q53 21 115 21q84 0 118 -35q32 -33 39 -118q-298 19 -422 -91q-80 -71 -80 -184zM155 1203l52 -131q4 -11 16 -7l214 85l212 -87q12 -5 16 7l54 130q5 12 -7 16l-270 111q-4 2 -9 0l-271 -108q-12 -4 -7 -16zM251 268q0 41 27 64 q59 53 232 53q39 0 81 -3q-15 -129 -91 -185q-28 -20 -64 -29q-26 -7 -54 -7q-81 0 -111 33q-20 23 -20 74z" />
<glyph unicode="&#xe3;" horiz-adv-x="895" d="M95 269q0 -126 78 -197q77 -71 214 -71q133 0 231 81q4 -36 9 -71q1 -11 12 -11h137q14 0 13 14q-5 33 -9 66q-5 45 -9 88q-11 117 -11 199v49q1 17 1 32q2 108 -11 172q-19 97 -76 155q-81 83 -232 83q-107 0 -196 -42q-33 -15 -60 -35q-11 -8 -21 -16q-8 -6 -14 -12 q-10 -9 0 -18l100 -93q8 -7 17 0q10 8 22 15q17 11 36 19q53 21 116 21q83 0 117 -35q33 -33 39 -119q-298 19 -422 -90q-81 -71 -81 -184zM150 1135q0 -9 9 -12l19 -6q55 -17 119 -17q34 0 76 5l38 5l37 6q94 14 139 14q52 0 94 -13l37 -11q6 -2 11 2q5 3 5 10v140 q0 8 -7 11q-15 8 -21 10q-55 17 -119 17q-34 0 -76 -4l-38 -5l-37 -6q-94 -15 -139 -15q-52 0 -94 13l-37 12q-6 2 -11 -2t-5 -10v-144zM256 269q0 40 26 63q60 53 233 53q39 0 82 -3q-16 -129 -92 -184q-28 -21 -64 -30q-26 -7 -54 -7q-81 0 -111 34q-20 23 -20 74z" />
<glyph unicode="&#xe4;" horiz-adv-x="891" d="M91 269q0 -126 77 -197q78 -71 215 -71q133 0 231 81q4 -36 9 -71q1 -11 12 -11h137q14 0 13 14q-5 33 -9 66q-5 45 -9 88q-12 117 -12 199q0 17 1 50q1 16 1 31q2 109 -11 173q-19 96 -76 154q-81 83 -233 83q-107 0 -196 -41q-32 -16 -60 -35q-11 -8 -21 -16 q-7 -6 -14 -13q-9 -9 0 -18l101 -92q8 -8 16 -1q10 8 22 16q17 10 37 18q52 22 115 22q84 0 118 -35q33 -33 39 -119q-299 19 -423 -91q-80 -71 -80 -184zM212 1199q0 -40 29 -68q28 -28 68 -28q39 0 68 28q28 28 28 68t-28 68q-29 28 -68 28q-40 0 -68 -28q-29 -28 -29 -68 zM252 269q0 40 26 64q60 53 233 53q39 0 81 -3q-15 -130 -91 -185q-29 -21 -64 -30q-26 -7 -54 -7q-82 0 -111 34q-20 23 -20 74zM471 1199q0 -40 28 -68t68 -28t68 28t28 68t-28 68t-68 28t-68 -28t-28 -68z" />
<glyph unicode="&#xe5;" horiz-adv-x="890" d="M91 268q0 -125 77 -196q77 -72 214 -72q133 0 231 82q4 -36 8 -71q2 -11 13 -11h137q14 0 12 14l-8 66q-6 45 -10 88q-11 116 -11 199q0 16 1 49v31q2 109 -11 173q-19 96 -75 154q-82 83 -233 83q-106 0 -195 -42q-32 -15 -60 -35q-11 -8 -21 -16l-14 -12q-10 -9 0 -18 l101 -93q8 -7 16 0q10 8 22 15q17 11 36 19q53 21 115 21q84 0 118 -35q32 -33 39 -118q-298 19 -422 -91q-80 -71 -80 -184zM214 1197q0 -92 66 -158q65 -65 157 -65t157 65q66 66 66 158t-66 157q-65 65 -157 65t-157 -65q-66 -65 -66 -157zM251 268q0 41 27 64 q59 53 232 53q39 0 81 -3q-15 -129 -91 -185q-28 -20 -64 -29q-26 -7 -54 -7q-81 0 -111 33q-20 23 -20 74zM372 1197q0 27 19 46t46 19t46 -19t19 -46t-19 -46t-46 -19t-46 19t-19 46z" />
<glyph unicode="&#xe6;" horiz-adv-x="1521" d="M94 287q-6 -109 45 -182q31 -43 79 -69q39 -20 88 -29q38 -6 74 -6q46 0 89 10q81 20 141 69q2 -24 5 -45l3 -24q1 -11 12 -11h141q14 0 12 14l-2 20l-8 46q12 -11 30 -22q99 -58 215 -58q114 0 213 57q100 58 157 157l14 24q6 11 -5 17l-121 70q-11 6 -17 -5l-11 -20 q-61 -104 -172 -129q-91 -20 -174 20q-81 40 -120 120l623 54q11 1 11 13v55q0 155 -99 274q-100 120 -252 143q-101 15 -197 -19q-94 -33 -163 -106q-15 25 -36 46q-81 83 -232 83q-119 0 -216 -52q-32 -17 -58 -39q-9 -7 -17 -14q-2 -3 -5 -5l-2 -2l-1 -1l-19 -21 q-8 -9 1 -18l83 -75l20 -19q9 -7 17 1l19 20h1v1l2 2q4 3 9 7q14 11 33 21q59 30 133 30q82 0 115 -34q31 -32 38 -115q-41 2 -77 2q-34 0 -67 -2q-29 -2 -54 -5q-36 -5 -69 -13q-38 -10 -67 -22q-41 -18 -74 -44q-40 -32 -62 -75q-23 -43 -26 -95zM255 277q2 35 27 56 q28 23 80 36q40 10 94 13q28 2 56 2q37 0 78 -3v-15v-22l-2 -12q-11 -39 -27 -67q-21 -38 -50 -60q-34 -26 -78 -36q-23 -5 -49 -5q-24 0 -48 4q-46 9 -64 33q-19 26 -17 76zM759 474q15 95 82 155q68 61 162 61q88 0 153 -47q63 -47 85 -127z" />
<glyph unicode="&#xe7;" horiz-adv-x="775" d="M54 447q-8 -168 100 -296q107 -126 270 -148v-82q0 -13 13 -13h30q16 0 26 -13t6 -29q-5 -18 -23 -23q-14 -4 -26 3q-11 7 -15 20q-3 9 -12 9h-61q-14 0 -12 -14q6 -50 47 -81q42 -31 94 -21q34 7 59 32t32 59q9 44 -12 83q-21 37 -61 52v15q110 7 202 66q11 6 4 17 l-77 112q-6 10 -17 4q-64 -40 -140 -40q-117 0 -197 88t-69 207q9 92 74 159t156 79q95 13 176 -36q10 -7 17 3l76 113q7 10 -4 17q-120 76 -263 65q-160 -13 -273 -130t-120 -277z" />
<glyph unicode="&#xe8;" horiz-adv-x="1007" d="M74 429q0 181 121 305q121 125 296 124q171 -2 291 -126t120 -297v-54q0 -11 -11 -12l-630 -55q33 -69 97 -110q66 -43 145 -43q68 0 128 33q61 33 98 91q6 10 16 4l118 -68q11 -6 5 -17q-59 -95 -156 -149q-98 -55 -209 -55q-178 0 -303 126q-126 126 -126 303zM238 473 l494 43q-21 83 -86 131q-66 50 -158 50q-97 0 -167 -63q-69 -62 -83 -161zM241 1164l21 139q2 13 14 11l448 -67q13 -2 11 -14l-21 -140q-2 -12 -14 -10l-449 67q-12 1 -10 14z" />
<glyph unicode="&#xe9;" horiz-adv-x="1007" d="M74 429q0 -177 126 -303q125 -126 303 -126q111 0 209 55q97 54 156 149q6 11 -5 17l-118 68q-10 6 -16 -4q-37 -58 -98 -91q-60 -33 -128 -33q-79 0 -145 43q-64 41 -97 110l630 55q11 1 11 12v54q0 173 -120 297t-291 126q-175 1 -296 -124q-121 -124 -121 -305z M238 473q14 99 83 161q70 63 167 63q92 0 158 -50q65 -48 86 -131zM241 1233l21 -140q2 -12 14 -10l449 67q12 1 10 14l-21 139q-2 13 -14 11l-448 -67q-13 -2 -11 -14z" />
<glyph unicode="&#xea;" horiz-adv-x="1007" d="M74 429q0 -177 126 -303q125 -126 303 -126q111 0 209 55q97 54 156 149q6 11 -5 17l-118 68q-10 6 -16 -4q-37 -58 -98 -91q-60 -33 -128 -33q-79 0 -145 43q-64 41 -97 110l630 55q11 1 11 12v54q0 173 -120 297t-291 126q-175 1 -296 -124q-121 -124 -121 -305z M206 1207l52 -132q4 -11 16 -7l214 85l213 -87q11 -5 16 7l53 130q5 12 -6 17l-271 111q-4 1 -9 0l-271 -108q-12 -5 -7 -16zM238 473q14 99 83 161q70 63 167 63q92 0 158 -50q65 -48 86 -131z" />
<glyph unicode="&#xeb;" horiz-adv-x="1007" d="M74 429q0 -177 126 -303q125 -126 303 -126q111 0 209 55q97 54 156 149q6 11 -5 17l-118 68q-10 6 -16 -4q-37 -58 -98 -91q-60 -33 -128 -33q-79 0 -145 43q-64 41 -97 110l630 55q11 1 11 12v54q0 173 -120 297t-291 126q-175 1 -296 -124q-121 -124 -121 -305z M238 473q14 99 83 161q70 63 167 63q92 0 158 -50q65 -48 86 -131zM263 1198q0 -39 28 -68q28 -28 68 -28t68 28q28 29 28 68q0 40 -28 68t-68 28t-68 -28t-28 -68zM521 1198q0 -39 28 -68q28 -28 68 -28t68 28q28 29 28 68q0 40 -28 68t-68 28t-68 -28t-28 -68z" />
<glyph unicode="&#xec;" horiz-adv-x="557" d="M36 1164q-2 -13 11 -14l448 -67q12 -2 14 10l21 140q2 12 -10 14l-449 67q-12 2 -14 -11zM203 12q0 -12 12 -12h136q12 0 12 12v833q0 12 -12 12h-136q-12 0 -12 -12v-833z" />
<glyph unicode="&#xed;" horiz-adv-x="557" d="M36 1233l21 -140q2 -12 14 -10l449 67q12 1 10 14l-21 139q-2 13 -14 11l-448 -67q-13 -2 -11 -14zM203 12q0 -12 12 -12h136q12 0 12 12v833q0 12 -12 12h-136q-12 0 -12 -12v-833z" />
<glyph unicode="&#xee;" horiz-adv-x="614" d="M39 1203l52 -131q4 -12 16 -7l214 85l212 -87q12 -5 16 6l54 131q5 11 -7 16l-270 111q-4 2 -9 0l-271 -108q-12 -4 -7 -16zM241 12q0 -12 12 -12h136q12 0 12 12v832q0 12 -12 12h-136q-12 0 -12 -12v-832z" />
<glyph unicode="&#xef;" horiz-adv-x="509" d="M34 1198q0 -39 28 -68q28 -28 68 -28t68 28q28 29 28 68q0 40 -28 68t-68 28t-68 -28t-28 -68zM179 12q0 -12 12 -12h136q12 0 12 12v833q0 12 -12 12h-136q-12 0 -12 -12v-833zM292 1198q0 -39 28 -68q28 -28 68 -28t68 28q28 29 28 68q0 40 -28 68t-68 28t-68 -28 t-28 -68z" />
<glyph unicode="&#xf0;" horiz-adv-x="997" d="M74 406q1 -168 121 -287t288 -119q169 0 289 120t120 289q0 104 -50 195v2q-14 24 -31 47l-204 319h175q14 0 14 14v66q0 14 -14 14h-235l-233 363q-4 6 -11 6h-79q-8 0 -12 -7t0 -14l223 -348h-171q-14 0 -14 -14v-66q0 -14 14 -14h232l110 -173q-60 19 -123 19 q-169 0 -289 -120t-120 -289v-3zM168 407v2q0 130 93 222q92 93 222 93q76 0 144 -35t112 -97l18 -28l2 -3l1 -2q38 -70 38 -150q0 -130 -92 -223q-93 -92 -223 -92t-222 92t-93 221z" />
<glyph unicode="&#xf1;" horiz-adv-x="993" d="M153 12q0 -12 13 -12h139q12 0 12 12v484l1 11v14l1 4v3v3q1 6 3 17q5 22 16 43q13 27 33 48q53 57 129 60h5h5l3 1l1 -1h7h6h2l2 -1h5l5 -1q21 -3 40 -10q40 -16 69 -47q30 -31 42 -71q7 -19 9 -40l1 -20v-28q0 -24 -1 -54v-27v-25q0 -65 -1 -96q0 -118 -1 -197v-68 q0 -13 12 -13h137q13 0 13 13l-1 68q0 79 -1 197q0 31 -1 96v25v27v54v28q-1 19 -3 37q-4 37 -16 73q-25 72 -79 128q-53 54 -126 81q-35 13 -72 18l-9 1q-5 1 -10 1l-4 1h-6h-8h-7l-6 1l-4 -1h-9l-9 -1q-69 -5 -130 -37q-21 -10 -43 -27v65q0 13 -12 13h-139q-13 0 -13 -13 v-837zM215 1135q0 -9 9 -12l19 -6q55 -17 119 -17q34 0 76 5l38 5l37 6q94 14 139 14q52 0 94 -13l37 -11q6 -2 11 2q5 3 5 10v140q0 8 -7 11q-15 8 -21 10q-55 17 -119 17q-34 0 -76 -4l-38 -5l-37 -6q-94 -15 -139 -15q-52 0 -94 13l-37 12q-6 2 -11 -2t-5 -10v-144z" />
<glyph unicode="&#xf2;" horiz-adv-x="1036" d="M74 429q0 -178 126 -303q126 -126 303 -126t303 126q125 125 125 303q0 177 -125 302q-126 126 -303 126t-303 -126q-126 -125 -126 -302zM235 429q0 110 79 189q78 78 189 78q110 0 189 -78q79 -79 79 -189q0 -111 -79 -190q-79 -78 -189 -78q-111 0 -189 78 q-79 79 -79 190zM256 1163q-2 -12 10 -14l449 -67q12 -1 14 11l21 140q1 12 -11 14l-448 66q-13 2 -14 -10z" />
<glyph unicode="&#xf3;" horiz-adv-x="1036" d="M74 429q0 -178 126 -303q126 -126 303 -126t303 126q125 125 125 303q0 177 -125 302q-126 126 -303 126t-303 -126q-126 -125 -126 -302zM235 429q0 110 79 189q78 78 189 78q110 0 189 -78q79 -79 79 -189q0 -111 -79 -190q-79 -78 -189 -78q-111 0 -189 78 q-79 79 -79 190zM256 1233l21 -140q2 -12 14 -11l448 67q12 2 11 14l-21 140q-2 12 -14 10l-449 -66q-12 -2 -10 -14z" />
<glyph unicode="&#xf4;" horiz-adv-x="1037" d="M74 429q0 -178 126 -303q126 -126 303 -126t303 126q126 125 126 303q0 177 -126 303q-126 125 -303 125t-303 -125q-126 -126 -126 -303zM221 1207l52 -132q4 -11 16 -7l214 85l213 -87q11 -5 16 7l53 130q5 12 -6 17l-271 111q-4 1 -9 0l-271 -108q-12 -5 -7 -16z M235 429q0 110 79 189q78 79 189 79t189 -79q79 -79 79 -189q0 -111 -79 -190q-78 -78 -189 -78t-189 78q-79 79 -79 190z" />
<glyph unicode="&#xf5;" horiz-adv-x="1037" d="M74 429q0 -178 126 -303q126 -126 303 -126t303 126q126 125 126 303q0 177 -126 303q-126 125 -303 125t-303 -125q-126 -126 -126 -303zM211 1135q0 -9 9 -12l19 -6q55 -17 119 -17q34 0 76 5l38 5l37 6q94 14 139 14q52 0 94 -13l37 -11q6 -2 11 2q5 3 5 10v140 q0 8 -7 11q-15 8 -21 10q-55 17 -119 17q-34 0 -76 -4l-38 -5l-37 -6q-94 -15 -139 -15q-52 0 -94 13l-37 12q-6 2 -11 -2t-5 -10v-144zM235 429q0 110 79 189q78 79 189 79t189 -79q79 -79 79 -189q0 -111 -79 -190q-78 -78 -189 -78t-189 78q-79 79 -79 190z" />
<glyph unicode="&#xf6;" horiz-adv-x="1037" d="M74 429q0 -178 126 -303q126 -126 303 -126t303 126q126 125 126 303q0 177 -126 303q-126 125 -303 125t-303 -125q-126 -126 -126 -303zM235 429q0 111 79 189q78 79 189 79t189 -79q79 -78 79 -189t-79 -190q-78 -78 -189 -78t-189 78q-79 79 -79 190zM278 1198 q0 -39 28 -67q28 -29 68 -29t68 29q28 28 28 67q0 40 -28 68q-28 29 -68 29t-68 -29q-28 -28 -28 -68zM536 1198q0 -39 28 -67q28 -29 68 -29t68 29q28 28 28 67q0 40 -28 68q-28 29 -68 29t-68 -29q-28 -28 -28 -68z" />
<glyph unicode="&#xf7;" d="M87 647v140h839l1 -1v-139h-840zM382 377q0 15 16 31l82 84q15 14 29 14q13 0 31 -16l80 -86q12 -16 12 -29q0 -15 -14 -31l-80 -88q-20 -20 -29 -20q-16 0 -29 14l-88 101q-10 13 -10 26zM382 1070q0 15 16 31l82 84q15 14 29 14q13 0 31 -16l80 -86q12 -16 12 -29 q0 -15 -14 -31l-80 -88q-20 -20 -29 -20q-16 0 -29 14l-88 101q-10 13 -10 26z" />
<glyph unicode="&#xf8;" horiz-adv-x="1078" d="M80 140l82 -108q8 -10 18 -3l89 68q118 -97 271 -97q177 0 303 126q125 125 125 303q0 90 -36 172l65 50q10 7 3 17l-83 109q-7 9 -17 2l-59 -45q-126 123 -301 123q-178 0 -303 -125q-126 -126 -126 -303q0 -112 54 -209l-83 -63q-10 -7 -2 -17zM272 429q0 111 78 189 q79 79 190 79q96 0 170 -62l-415 -316q-23 53 -23 110zM403 199l395 300q10 -35 10 -70q0 -111 -79 -190q-78 -78 -189 -78q-74 0 -137 38z" />
<glyph unicode="&#xf9;" horiz-adv-x="963" d="M125 782q1 -80 1 -199q0 -20 1 -47v-25v-25v-108l1 -28q0 -18 1 -34q3 -38 14 -74q22 -74 76 -132q53 -58 125 -86q35 -14 72 -20l9 -1l9 -1l10 -1l10 -1h15h4h2h5l9 1q70 4 132 35q23 12 47 29v-46q0 -12 12 -12h139q12 0 12 12v836q0 13 -12 13h-139q-12 0 -12 -13 v-502l-1 -10v-15l-1 -4q0 -4 -1 -6q0 -7 -3 -17q-5 -23 -15 -44q-14 -27 -34 -48q-54 -57 -132 -59h-5h-4h-13l-8 1l-6 1l-5 1q-20 3 -40 11q-39 16 -68 49q-30 33 -41 73q-6 20 -7 41q-1 7 -1 23l1 14v14v55v27v26q1 63 1 97q0 119 1 199v68q0 12 -12 12h-137 q-12 0 -12 -12v-68zM231 1163q-2 -13 11 -14l448 -67q12 -2 14 10l21 140q2 12 -11 14l-448 67q-12 2 -14 -11z" />
<glyph unicode="&#xfa;" horiz-adv-x="963" d="M125 782q1 -80 1 -199q0 -20 1 -47v-25v-25v-108l1 -28q0 -18 1 -34q3 -38 14 -74q22 -74 76 -132q53 -58 125 -86q35 -14 72 -20l9 -1l9 -1l10 -1l10 -1h15h4h2h5l9 1q70 4 132 35q23 12 47 29v-46q0 -12 12 -12h139q12 0 12 12v836q0 13 -12 13h-139q-12 0 -12 -13 v-502l-1 -10v-15l-1 -4q0 -4 -1 -6q0 -7 -3 -17q-5 -23 -15 -44q-14 -27 -34 -48q-54 -57 -132 -59h-5h-4h-13l-8 1l-6 1l-5 1q-20 3 -40 11q-39 16 -68 49q-30 33 -41 73q-6 20 -7 41q-1 7 -1 23l1 14v14v55v27v26q1 63 1 97q0 119 1 199v68q0 12 -12 12h-137 q-12 0 -12 -12v-68zM231 1232l21 -140q2 -12 14 -10l448 67q13 1 11 14l-21 139q-2 13 -14 11l-448 -67q-13 -2 -11 -14z" />
<glyph unicode="&#xfb;" horiz-adv-x="965" d="M125 852l1 -68q0 -80 1 -200v-47v-24v-26q1 -66 1 -108v-28q0 -18 1 -35q3 -37 14 -74q23 -74 76 -132q54 -58 126 -86q35 -14 72 -20l9 -1l10 -1l9 -1l11 -1h14h4h2h5l9 1q70 4 133 35q23 12 46 29v-46q0 -12 13 -12h139q12 0 12 12v838q0 13 -12 13h-139q-13 0 -13 -13 v-503v-11l-1 -14v-4q0 -4 -1 -7q-1 -6 -3 -17q-5 -22 -16 -43q-13 -27 -34 -49q-53 -56 -132 -59h-5h-4l-13 1l-8 1h-5l-6 1q-20 4 -40 12q-39 16 -69 49q-29 32 -40 73q-6 20 -7 41q-1 7 -1 23v14v14q0 24 1 55v27v26v97q1 120 2 200v68q0 12 -12 12h-137q-13 0 -13 -12z M196 1208l53 -131q4 -12 16 -7l214 85l213 -87q12 -5 16 6l54 131q5 12 -7 17l-270 111q-5 1 -10 0l-272 -108q-11 -5 -7 -17z" />
<glyph unicode="&#xfc;" horiz-adv-x="962" d="M125 848l1 -68q0 -79 1 -199v-46v-25v-25q1 -66 1 -108v-28q0 -18 1 -34q3 -38 14 -74q23 -74 76 -132q54 -57 125 -85q35 -14 72 -20l9 -1l9 -1l10 -1l10 -1h15h4h2h5l9 1q70 4 132 35q23 12 46 29v-46q0 -12 13 -12h138q12 0 12 12v834q0 13 -12 13h-138q-13 0 -13 -13 v-500v-11l-1 -14v-5q-1 -3 -1 -6q-1 -6 -3 -17q-5 -22 -16 -43q-13 -27 -34 -49q-53 -56 -131 -58h-5h-4h-13l-9 1l-5 1h-5q-20 4 -40 12q-39 16 -68 49q-29 32 -41 73q-6 20 -7 40v23v14v14v55v27l1 26v96q1 120 1 199l1 68q0 12 -13 12h-136q-13 0 -13 -12zM253 1194 q0 40 28 68q29 28 68 28q40 0 68 -28t28 -68q0 -39 -28 -67t-68 -28q-39 0 -68 28q-28 28 -28 67zM511 1194q0 40 28 68t68 28q39 0 67 -28t28 -68q0 -39 -28 -67t-67 -28q-40 0 -68 28t-28 67z" />
<glyph unicode="&#xfd;" horiz-adv-x="1025" d="M39 785l374 -899l-162 -402q-3 -7 2 -13q4 -6 11 -6h166q9 0 13 9l527 1311q3 7 -1 13t-12 6h-166q-9 0 -12 -9l-270 -669l-277 670q-4 8 -13 8h-167q-7 0 -11 -6t-2 -13zM231 1209l23 -155q2 -14 15 -12l499 74q13 2 11 16l-23 155q-2 14 -16 12l-498 -74 q-13 -2 -11 -16z" />
<glyph unicode="&#xfe;" horiz-adv-x="1010" />
<glyph unicode="&#xff;" horiz-adv-x="1025" d="M40 788l373 -899l-162 -401q-2 -7 2 -13t11 -6h166q10 0 13 9l527 1310q3 7 -2 13q-4 6 -11 6h-166q-9 0 -13 -9l-269 -669l-277 669q-4 9 -13 9h-166q-8 0 -12 -6t-1 -13zM255 1173q0 44 31 75t76 31q44 0 75 -31t31 -75t-31 -76q-31 -31 -75 -31q-45 0 -76 31 q-31 32 -31 76zM541 1173q0 44 32 75q31 31 75 31t75 -31q32 -31 32 -75t-32 -76q-31 -31 -75 -31t-75 31q-32 32 -32 76z" />
<glyph unicode="&#x2c6;" d="M257 1049q-9 9 0 19l363 362q9 10 18 0l363 -362q9 -10 0 -19l-101 -101q-9 -9 -18 0l-253 253l-253 -253q-9 -9 -18 0z" />
<glyph unicode="&#x2dc;" horiz-adv-x="1024" d="M384 1115q0 -10 9 -13l21 -6q57 -18 124 -18q36 0 81 5l39 5l39 6q99 16 146 16q54 0 99 -14l38 -12q7 -2 12 2t5 10v148q0 8 -7 12q-15 8 -23 10q-57 18 -124 18q-36 0 -80 -5l-40 -5l-39 -6q-98 -16 -146 -16q-54 0 -99 14l-38 12q-6 2 -12 -2q-5 -4 -5 -10v-151z" />
<glyph unicode="&#x2000;" horiz-adv-x="936" />
<glyph unicode="&#x2001;" horiz-adv-x="1873" />
<glyph unicode="&#x2002;" horiz-adv-x="936" />
<glyph unicode="&#x2003;" horiz-adv-x="1873" />
<glyph unicode="&#x2004;" horiz-adv-x="624" />
<glyph unicode="&#x2005;" horiz-adv-x="468" />
<glyph unicode="&#x2006;" horiz-adv-x="312" />
<glyph unicode="&#x2007;" horiz-adv-x="312" />
<glyph unicode="&#x2008;" horiz-adv-x="234" />
<glyph unicode="&#x2009;" horiz-adv-x="374" />
<glyph unicode="&#x200a;" horiz-adv-x="104" />
<glyph unicode="&#x2010;" horiz-adv-x="707" d="M89 646v143q0 13 13 13h481q13 0 13 -13v-143q0 -13 -13 -13h-481q-13 0 -13 13z" />
<glyph unicode="&#x2011;" horiz-adv-x="707" d="M89 646v143q0 13 13 13h481q13 0 13 -13v-143q0 -13 -13 -13h-481q-13 0 -13 13z" />
<glyph unicode="&#x2012;" horiz-adv-x="707" d="M89 646v143q0 13 13 13h481q13 0 13 -13v-143q0 -13 -13 -13h-481q-13 0 -13 13z" />
<glyph unicode="&#x2013;" horiz-adv-x="1108" d="M214 646v143q0 13 13 13h671q13 0 13 -13v-143q0 -13 -13 -13h-671q-13 0 -13 13z" />
<glyph unicode="&#x2014;" horiz-adv-x="2048" d="M214 646v143q0 13 13 13h1071q13 0 13 -13v-143q0 -13 -13 -13h-1071q-13 0 -13 13z" />
<glyph unicode="&#x2018;" horiz-adv-x="1024" d="M230 1266q-4 -13 9 -18l48 -19q13 -5 18 8l81 212q4 12 -9 17l-48 18q-13 5 -18 -7z" />
<glyph unicode="&#x2019;" horiz-adv-x="1024" d="M230 1449q-4 12 9 17l48 18q13 5 18 -7l81 -211q5 -13 -8 -18l-49 -19q-13 -5 -18 8z" />
<glyph unicode="&#x201a;" horiz-adv-x="557" d="M277 54q0 -44 31 -75q30 -30 74 -30h9q21 0 35 14q15 15 15 35v166q0 12 -9 21q-8 8 -20 8h-106q-12 0 -21 -8q-8 -9 -8 -21v-110z" />
<glyph unicode="&#x201c;" horiz-adv-x="672" d="M243 1243v226q0 13 14 13h52q14 0 14 -13v-226q0 -14 -14 -14h-52q-14 0 -14 14zM414 1243v226q0 13 13 13h53q13 0 13 -13v-226q0 -14 -13 -14h-53q-13 0 -13 14z" />
<glyph unicode="&#x201d;" horiz-adv-x="672" d="M243 1243v226q0 13 14 13h52q14 0 14 -13v-226q0 -14 -14 -14h-52q-14 0 -14 14zM414 1243v226q0 13 13 13h53q13 0 13 -13v-226q0 -14 -13 -14h-53q-13 0 -13 14z" />
<glyph unicode="&#x201e;" horiz-adv-x="672" d="M243 -47v226q0 13 14 13h52q14 0 14 -13v-226q0 -14 -14 -14h-52q-14 0 -14 14zM414 -47v226q0 13 13 13h53q13 0 13 -13v-226q0 -14 -13 -14h-53q-13 0 -13 14z" />
<glyph unicode="&#x2022;" horiz-adv-x="1024" d="M163 719q0 69 49 118t118 49t118 -49t49 -118t-49 -118t-118 -49t-118 49t-49 118zM258 719q0 -30 21 -51t51 -21t51 21t21 51t-21 51t-51 21t-51 -21t-21 -51z" />
<glyph unicode="&#x2026;" horiz-adv-x="2048" d="M300 97q0 40 28 68t68 28t69 -28q28 -28 28 -68t-28 -69q-29 -28 -69 -28q-39 0 -68 28q-28 29 -28 69zM644 97q0 40 28 68q29 28 69 28t68 -28t28 -68t-28 -69q-28 -28 -68 -28t-69 28q-28 29 -28 69zM989 97q0 40 28 68q29 28 69 28t68 -28t28 -68t-28 -69 q-28 -28 -68 -28t-69 28q-28 29 -28 69z" />
<glyph unicode="&#x202f;" horiz-adv-x="374" />
<glyph unicode="&#x2039;" d="M215 708q-9 9 0 19l363 363q9 9 19 0l101 -101q9 -10 0 -19l-253 -253l253 -252q9 -10 0 -19l-101 -101q-10 -9 -19 0z" />
<glyph unicode="&#x203a;" d="M215 446q-9 9 0 19l253 252l-253 253q-9 9 0 19l101 101q9 9 19 0l363 -363q9 -10 0 -19l-363 -363q-10 -9 -19 0z" />
<glyph unicode="&#x205f;" horiz-adv-x="468" />
<glyph unicode="&#x20ac;" horiz-adv-x="943" d="M121 702q6 -197 148 -335q143 -138 341 -138q143 0 263 77q11 7 4 18l-80 118q-7 11 -18 4q-77 -48 -169 -48q-144 0 -240 108h158q13 0 13 13v143q0 13 -13 13h-235q-4 28 -3 55q0 15 3 31h235q13 0 13 13v143q0 13 -13 13h-157q94 105 232 108q95 2 175 -48q11 -6 18 4 l80 118q8 12 -4 19q-127 81 -279 76q-200 -7 -339 -156q-139 -148 -133 -349z" />
<glyph unicode="&#x2122;" horiz-adv-x="1497" d="M167 1403q0 -3 3 -3h53v-178q0 -4 4 -4h28q3 0 3 4v178h53q4 0 4 3v28q0 4 -4 4h-141q-3 0 -3 -4v-28zM334 1222q0 -3 4 -3h28q3 0 3 3v143l52 -58q3 -3 5 0l52 58v-143q0 -3 4 -3h27q4 0 4 3v209q0 4 -4 4h-14q-2 0 -3 -2l-68 -76l-69 76q-1 2 -3 2h-14q-4 0 -4 -4v-209 z" />
<glyph unicode="&#x25fc;" horiz-adv-x="900" d="M0 0v900h900v-900h-900z" />
</font>
</defs>
</svg>
